<svg width="565" height="580" viewBox="0 0 565 580" fill="none" xmlns="http://www.w3.org/2000/svg">
<g style="mix-blend-mode:luminosity" clip-path="url(#clip0_32_288)">
<path d="M244.773 41.6242C238.185 45.1575 229.989 42.6828 226.457 36.0962C222.924 29.5095 225.392 21.3015 231.979 17.7695C238.567 14.2361 246.78 16.7161 250.312 23.3028C253.845 29.8895 251.36 38.0922 244.773 41.6242ZM258.756 52.0521L267.465 38.0108L263.165 35.3481C261.9 34.5641 261.215 33.1348 261.341 31.6522C261.412 30.8335 261.439 30.0082 261.421 29.1815C261.388 27.6988 262.163 26.3175 263.471 25.6175L267.928 23.2268L260.116 8.66016L255.659 11.0508C254.351 11.7522 252.772 11.6335 251.555 10.7869C250.876 10.3135 250.175 9.87885 249.453 9.48418C248.149 8.77085 247.337 7.40815 247.384 5.92149L247.544 0.865498L231.029 0.352152L230.876 5.42683C230.832 6.91483 229.92 8.20818 228.573 8.84551C228.208 9.01751 227.845 9.20019 227.487 9.39219C227.128 9.58552 226.776 9.78546 226.429 9.99479C225.161 10.7601 223.587 10.8055 222.328 10.0242L217.996 7.34147L209.287 21.3828L213.595 24.0562C214.859 24.8415 215.543 26.2735 215.415 27.7548C215.343 28.5708 215.316 29.3922 215.333 30.2148C215.364 31.6975 214.589 33.0762 213.283 33.7762L208.824 36.1682L216.636 50.7335L221.095 48.3428C222.401 47.6415 223.977 47.7602 225.196 48.6055C225.872 49.0748 226.571 49.5055 227.289 49.8988C228.596 50.6122 229.409 51.9735 229.364 53.4615L229.208 58.5295L245.723 59.0415L245.88 53.9722C245.925 52.4882 246.836 51.1988 248.177 50.5655C248.544 50.3922 248.909 50.2081 249.272 50.0135C249.631 49.8215 249.983 49.6201 250.329 49.4108C251.604 48.6415 253.187 48.5975 254.452 49.3828L258.756 52.0521Z" fill="#E7E8E5"/>
<path d="M21.3901 221.949C16.1536 221.949 11.913 217.708 11.913 212.472C11.913 207.236 16.1536 202.985 21.3901 202.985C26.6266 202.985 30.8766 207.236 30.8766 212.472C30.8766 217.708 26.6266 221.949 21.3901 221.949ZM26.5703 233.016L36.5964 227.232L34.824 224.163C34.3022 223.261 34.3527 222.152 34.9214 221.279C35.2364 220.796 35.5255 220.295 35.788 219.779C36.2594 218.852 37.1948 218.257 38.2339 218.257H41.7766V206.679H38.2339C37.1948 206.679 36.2594 206.081 35.788 205.155C35.5255 204.639 35.2364 204.139 34.9214 203.656C34.3531 202.784 34.3022 201.673 34.824 200.771L36.5964 197.703L26.5703 191.917L24.7964 195C24.2755 195.904 23.2839 196.401 22.2421 196.348C21.9599 196.333 21.6755 196.327 21.3901 196.327C21.1047 196.327 20.8208 196.333 20.5386 196.348C19.5022 196.401 18.5151 195.907 17.9959 195.008L16.2099 191.917L6.18387 197.703L7.95835 200.78C8.47919 201.683 8.4271 202.793 7.85679 203.665C7.54324 204.147 7.25471 204.644 6.9922 205.157C6.52086 206.083 5.58595 206.679 4.54794 206.679H1.00366V218.257H4.54794C5.58595 218.257 6.52086 218.851 6.9922 219.776C7.25471 220.291 7.54324 220.788 7.85679 221.268C8.4271 222.141 8.47919 223.252 7.95835 224.155L6.18387 227.232L16.2099 233.016L17.986 229.939C18.5052 229.039 19.4938 228.543 20.5318 228.596C20.8156 228.611 21.1016 228.617 21.3901 228.617C21.6755 228.617 21.9599 228.611 22.2421 228.596C23.2839 228.543 24.276 229.04 24.7974 229.943L26.5703 233.016Z" fill="#E7E8E5"/>
<path d="M317.897 69.6574C317.897 74.8948 313.657 79.1348 308.421 79.1348C303.184 79.1348 298.935 74.8948 298.935 69.6574C298.935 64.4214 303.184 60.1721 308.421 60.1721C313.657 60.1721 317.897 64.4214 317.897 69.6574ZM328.965 64.4774L323.18 54.4521L320.113 56.2241C319.211 56.7468 318.1 56.6961 317.228 56.1268C316.744 55.8121 316.244 55.5228 315.728 55.2601C314.801 54.7908 314.205 53.8534 314.205 52.8147V49.2708H302.627V52.8147C302.627 53.8534 302.031 54.7908 301.105 55.2601C300.588 55.5228 300.088 55.8121 299.605 56.1268C298.732 56.6961 297.623 56.7468 296.721 56.2241L293.652 54.4521L287.867 64.4774L290.949 66.2521C291.852 66.7734 292.349 67.7654 292.296 68.8068C292.283 69.0881 292.276 69.3721 292.276 69.6574C292.276 69.9428 292.283 70.2281 292.296 70.5094C292.349 71.5468 291.856 72.5334 290.957 73.0534L287.867 74.8388L293.652 84.8641L296.728 83.0908C297.631 82.5694 298.741 82.6214 299.615 83.1921C300.095 83.5054 300.593 83.7934 301.108 84.0548C302.032 84.5281 302.627 85.4628 302.627 86.5014V90.0454H314.205V86.5014C314.205 85.4628 314.8 84.5281 315.727 84.0548C316.239 83.7934 316.737 83.5054 317.217 83.1921C318.091 82.6214 319.201 82.5694 320.104 83.0908L323.18 84.8641L328.965 74.8388L325.888 73.0628C324.988 72.5428 324.492 71.5547 324.545 70.5161C324.56 70.2334 324.565 69.9468 324.565 69.6574C324.565 69.3721 324.56 69.0881 324.545 68.8068C324.492 67.7641 324.989 66.7721 325.893 66.2507L328.965 64.4774Z" fill="#E7E8E5"/>
<path d="M550.237 386.541L550.427 393.923C550.487 396.412 550.576 398.929 550.601 401.46L550.605 401.821L550.237 401.825C544.352 401.893 538.468 402.036 532.584 402.044L514.931 402.127L514.261 402.129L514.264 401.46L514.336 386.541L514.34 385.943L514.931 385.948C517.905 385.971 520.889 385.959 523.856 386.02L532.737 386.171L550.237 386.541ZM550.237 386.541L532.431 386.913L523.659 387.063C520.74 387.125 517.84 387.113 514.931 387.136L515.524 386.541L515.596 401.46L514.931 400.795L532.584 400.879C538.468 400.887 544.352 401.029 550.237 401.097L549.873 401.46C549.899 399.019 549.988 396.564 550.048 394.08L550.237 386.541Z" fill="#E7E8E5"/>
<path d="M371.797 266.64H336.491V281.56H371.797V266.64Z" fill="#E7E8E5"/>
<path d="M352.101 247.827L352.291 255.208C352.351 257.699 352.441 260.215 352.465 262.747L352.469 263.107L352.101 263.111C346.217 263.18 340.333 263.323 334.448 263.329L316.793 263.413L316.124 263.416L316.128 262.747L316.2 247.828L316.203 247.228L316.793 247.233C319.771 247.256 322.753 247.244 325.721 247.307L334.603 247.456L352.101 247.827ZM352.101 247.827L334.293 248.199L325.521 248.348C322.605 248.411 319.704 248.399 316.793 248.421L317.389 247.828L317.46 262.747L316.793 262.081L334.448 262.165C340.333 262.172 346.217 262.315 352.101 262.383L351.737 262.747C351.763 260.305 351.852 257.849 351.912 255.365L352.101 247.827Z" fill="#E7E8E5"/>
<path d="M391.493 247.827L391.681 255.208C391.741 257.699 391.832 260.215 391.856 262.747L391.86 263.107L391.493 263.111C385.608 263.18 379.724 263.323 373.84 263.329L356.185 263.413L355.516 263.416L355.519 262.747L355.591 247.828L355.595 247.228L356.185 247.233C359.161 247.256 362.144 247.244 365.112 247.307L373.993 247.456L391.493 247.827ZM391.493 247.827L373.685 248.199L364.913 248.348C361.996 248.411 359.095 248.399 356.185 248.421L356.78 247.828L356.851 262.747L356.185 262.081L373.84 262.165C379.724 262.172 385.608 262.315 391.493 262.383L391.128 262.747C391.155 260.305 391.243 257.849 391.303 255.365L391.493 247.827Z" fill="#E7E8E5"/>
<path d="M33.814 29.7856L33.6245 22.4043C33.5645 19.9149 33.4751 17.3976 33.45 14.8669L33.4464 14.5056L33.814 14.5016C39.6984 14.4336 45.5828 14.2896 51.4677 14.2843L69.1213 14.2002L69.7907 14.1976L69.7869 14.8669L69.7156 29.7856L69.7125 30.3843L69.1213 30.3802C66.1453 30.3562 63.1625 30.3696 60.1948 30.3069L51.3136 30.1576L33.814 29.7856ZM33.814 29.7856L51.6213 29.4136L60.3932 29.2656C63.3104 29.2016 66.212 29.2149 69.1213 29.1909L68.5265 29.7856L68.4552 14.8669L69.1213 15.5323L51.4677 15.4483C45.5828 15.4416 39.6984 15.2989 33.814 15.2296L34.1781 14.8669C34.1527 17.3082 34.0636 19.7629 34.0031 22.2469L33.814 29.7856Z" fill="#E7E8E5"/>
<path d="M14.1183 48.5986H49.426V33.6786H14.1183V48.5986Z" fill="#E7E8E5"/>
<path d="M514.931 29.8013L514.74 22.42C514.68 19.9306 514.591 17.4133 514.565 14.8813L514.563 14.5226L514.931 14.5173C520.815 14.4493 526.699 14.3066 532.584 14.2999L550.237 14.2159L550.907 14.2119L550.903 14.8813L550.832 29.8013L550.829 30.3999L550.237 30.3959C547.263 30.3719 544.28 30.3853 541.311 30.3226L532.431 30.1719L514.931 29.8013ZM514.931 29.8013L532.737 29.4293L541.509 29.2813C544.427 29.2173 547.329 29.2306 550.237 29.2079L549.644 29.8013L549.571 14.8813L550.237 15.548L532.584 15.4639C526.699 15.4572 520.815 15.3146 514.931 15.2453L515.293 14.8813C515.269 17.3239 515.179 19.7799 515.119 22.2626L514.931 29.8013Z" fill="#E7E8E5"/>
<path d="M277.619 467.824H242.311V482.744H277.619V467.824Z" fill="#E7E8E5"/>
<path d="M49.426 392.115L49.6145 399.496C49.6754 401.985 49.7645 404.503 49.789 407.033L49.7932 407.393L49.4254 407.399C43.5412 407.465 37.6562 407.609 31.7713 407.616L14.1182 407.7L13.4484 407.703L13.4521 407.033L13.5245 392.115L13.5265 391.515L14.1182 391.519C17.0937 391.543 20.077 391.531 23.0442 391.593L31.926 391.743L49.426 392.115ZM49.426 392.115L31.6182 392.485L22.8458 392.635C19.9286 392.697 17.0276 392.684 14.1182 392.708L14.7125 392.115L14.7838 407.033L14.1182 406.368L31.7713 406.452C37.6562 406.459 43.5412 406.601 49.4254 406.671L49.062 407.033C49.0864 404.592 49.176 402.136 49.2364 399.652L49.426 392.115Z" fill="#E7E8E5"/>
<path d="M257.923 449.012L258.112 456.393C258.172 458.882 258.261 461.4 258.287 463.931L258.291 464.291L257.923 464.294C252.037 464.363 246.153 464.507 240.269 464.513L222.616 464.597L221.947 464.6L221.949 463.931L222.021 449.012L222.024 448.412L222.616 448.416C225.591 448.44 228.575 448.428 231.541 448.491L240.423 448.639L257.923 449.012ZM257.923 449.012L240.116 449.382L231.343 449.532C228.425 449.595 225.525 449.581 222.616 449.605L223.209 449.012L223.281 463.931L222.616 463.265L240.269 463.348C246.153 463.355 252.037 463.498 257.923 463.568L257.559 463.931C257.584 461.489 257.673 459.033 257.733 456.549L257.923 449.012Z" fill="#E7E8E5"/>
<path d="M498.264 381.999H398.648V329.581H498.264V381.999ZM498.264 446.894H398.648V394.477H498.264V446.894ZM387.597 319.853V521.203H509.315V319.853H387.597Z" fill="#D4D6D3"/>
<path d="M564.356 521.198H509.319V319.854H564.356V521.198Z" fill="#E7E8E5"/>
<path d="M422.323 381.991H398.651V329.577H422.323V381.991Z" fill="#E7E8E5"/>
<path d="M498.265 508.564V508.231H399.605V458.923H497.932V508.564H498.265H498.599V458.256H398.939V508.897H498.599V508.564H498.265Z" fill="#E7E8E5"/>
<path d="M458.6 479.836H438.937V472.648H458.6V479.836Z" fill="#E7E8E5"/>
<path d="M422.323 446.897H398.651V394.484H422.323V446.897Z" fill="#E7E8E5"/>
<path d="M467.984 446.895V398.572H484.639V446.895H467.984Z" fill="#999B9B"/>
<path d="M467.984 439.135V428.709H484.639V439.135H467.984Z" fill="#D4D6D3"/>
<path d="M467.984 420.319V414.134H484.639V420.319H467.984Z" fill="#D4D6D3"/>
<path d="M469.783 381.999H427.696V341.556H469.783V381.999Z" fill="#E7E8E5"/>
<path d="M485.777 381.999H469.783V341.556H485.777V381.999Z" fill="#BEBFBD"/>
<path d="M427.696 361.777H469.783L436.913 362.817L427.696 361.777Z" fill="#BEBFBD"/>
<path d="M469.783 377.113H427.696L460.564 378.153L469.783 377.113Z" fill="#BEBFBD"/>
<path d="M427.696 350.472H454.355L430.657 351.323L427.696 350.472Z" fill="#BEBFBD"/>
<path d="M469.783 371.158H443.124L466.823 372.008L469.783 371.158Z" fill="#BEBFBD"/>
<path d="M437.791 345.971H467.86L462.848 346.48L437.791 345.971Z" fill="#BEBFBD"/>
<path d="M431.785 366.113H461.855L456.843 366.623L431.785 366.113Z" fill="#BEBFBD"/>
<path d="M450.277 354.324H469.783L473.268 355.682L450.277 354.324Z" fill="#E7E8E5"/>
<path d="M422.323 354.324H441.828L445.312 355.682L422.323 354.324Z" fill="#E7E8E5"/>
<path d="M447.351 372.5H427.845L424.36 373.859L447.351 372.5Z" fill="#E7E8E5"/>
<path d="M469.783 367.884H485.445L488.931 369.243L469.783 367.884Z" fill="#BEBFBD"/>
<path d="M475.249 361.777H487.396L485.777 360.665L475.249 361.777Z" fill="#BEBFBD"/>
<path d="M498.265 446.895H484.639V395.344H498.265V446.895Z" fill="#E7E8E5"/>
<path d="M491.452 405.513C489.885 405.513 488.616 404.241 488.616 402.676C488.616 401.108 489.885 399.839 491.452 399.839C493.019 399.839 494.288 401.108 494.288 402.676C494.288 404.241 493.019 405.513 491.452 405.513Z" fill="white"/>
<path d="M491.452 404.297C490.556 404.297 489.831 403.571 489.831 402.676C489.831 401.78 490.556 401.053 491.452 401.053C492.347 401.053 493.073 401.78 493.073 402.676C493.073 403.571 492.347 404.297 491.452 404.297Z" fill="#999B9B"/>
<path d="M484.639 438.775V426.232H498.265V438.775H484.639Z" fill="white"/>
<path d="M416.433 446.969V436.253H467.984V446.969H416.433Z" fill="#BEBFBD"/>
<path d="M457.815 441.612C457.815 440.045 459.085 438.775 460.652 438.775C462.219 438.775 463.489 440.045 463.489 441.612C463.489 443.179 462.219 444.449 460.652 444.449C459.085 444.449 457.815 443.179 457.815 441.612Z" fill="white"/>
<path d="M459.029 441.612C459.029 440.716 459.756 439.99 460.652 439.99C461.548 439.99 462.275 440.716 462.275 441.612C462.275 442.508 461.548 443.235 460.652 443.235C459.756 443.235 459.029 442.508 459.029 441.612Z" fill="#999B9B"/>
<path d="M424.553 436.253H437.096V446.969H424.553V436.253Z" fill="white"/>
<path d="M553.812 222.107C554.037 256.728 526.488 285.248 492.279 285.808C458.068 286.367 430.155 258.755 429.929 224.132C429.705 189.511 457.255 160.989 491.463 160.431C525.673 159.871 553.587 187.484 553.812 222.107Z" fill="#E7E8E5"/>
<path d="M540.188 222.33C540.363 249.336 518.873 271.583 492.188 272.019C465.504 272.456 443.729 250.916 443.555 223.91C443.379 196.903 464.868 174.656 491.553 174.219C518.237 173.783 540.012 195.322 540.188 222.33Z" fill="white"/>
<path d="M526.707 222.549C526.833 242.02 511.34 258.06 492.1 258.375C472.861 258.689 457.163 243.16 457.036 223.688C456.909 204.217 472.403 188.179 491.641 187.864C510.881 187.548 526.58 203.077 526.707 222.549Z" fill="#E7E8E5"/>
<path d="M513.079 222.772C513.156 234.627 503.724 244.392 492.009 244.583C480.297 244.775 470.74 235.32 470.663 223.465C470.585 211.612 480.019 201.847 491.731 201.655C503.445 201.464 513.003 210.919 513.079 222.772Z" fill="white"/>
<path d="M501.312 222.964C501.345 228.241 497.147 232.589 491.933 232.675C486.719 232.76 482.464 228.551 482.429 223.273C482.396 217.996 486.595 213.649 491.808 213.564C497.023 213.478 501.279 217.688 501.312 222.964Z" fill="#E7E8E5"/>
<path d="M491.377 223.324L400.565 175.851L401.061 174.907L491.871 222.38L491.377 223.324Z" fill="#BEBFBD"/>
<path d="M396.733 177.511L396.968 177.417L401.127 176.133L392.932 171.848L388.491 173.2L396.733 177.511Z" fill="#BEBFBD"/>
<path d="M391.944 166.596L393.419 170.915L401.616 175.2C400.967 173.843 400.492 172.391 400.163 170.892L391.944 166.596Z" fill="#BEBFBD"/>
<path d="M493.853 222.065L492.144 225.137L487.587 224.749L490.577 222.301L490.881 218.459L493.853 222.065Z" fill="#BEBFBD"/>
<path d="M188.048 347.659C189.017 352.861 187.14 357.944 183.511 361.276L168.016 364.163C163.431 362.361 159.848 358.296 158.879 353.092C157.375 345.017 162.696 337.291 170.747 335.791C178.797 334.291 186.544 339.584 188.048 347.659Z" fill="#E7E8E5"/>
<path d="M191.235 359.837L192.065 364.293L161.145 370.055L160.316 365.597L191.235 359.837Z" fill="#E7E8E5"/>
<path d="M219.344 422.716L156.719 434.384L155.888 429.927L218.513 418.259L219.344 422.716Z" fill="#D4D6D3"/>
<path d="M221.672 435.215L159.047 446.881L158.216 442.424L220.841 430.756L221.672 435.215Z" fill="#D4D6D3"/>
<path d="M218.511 431.191L160.548 441.991L159.051 433.949L217.012 423.151L218.511 431.191Z" fill="#E7E8E5"/>
<path d="M189.219 364.825L190.048 369.283L164.823 373.981L163.993 369.524L189.219 364.825Z" fill="#D4D6D3"/>
<path d="M212.816 419.321L161.579 428.867C161.579 428.867 171.087 415.007 170.925 400.557C170.761 388.377 168.971 373.219 168.971 373.219L185.88 370.069C185.88 370.069 189.668 384.853 193.921 396.273C198.955 409.813 212.816 419.321 212.816 419.321Z" fill="#E7E8E5"/>
<path d="M251.12 567.353C251.12 574.316 196.187 579.958 128.423 579.958C60.6604 579.958 5.72705 574.316 5.72705 567.353C5.72705 560.392 60.6604 554.748 128.423 554.748C196.187 554.748 251.12 560.392 251.12 567.353Z" fill="#E7E8E5"/>
<path d="M0 521.203L70.5443 520.879L141.089 520.762L282.177 520.537L423.267 520.76L493.811 520.877L564.356 521.203L493.811 521.53L423.267 521.647L282.177 521.868L141.089 521.646L70.5443 521.527L0 521.203Z" fill="#17282F"/>
<path d="M40.474 100.421C40.4344 90.2147 41.9588 79.9481 45.3255 70.2561C48.711 60.5854 53.6964 51.444 60.1474 43.444C66.573 35.4294 74.3921 28.5281 83.1417 23.1254C91.9079 17.7561 101.57 13.8214 111.64 11.68C116.679 10.636 121.801 10.0201 126.94 9.81474C128.225 9.79341 129.51 9.7387 130.795 9.74137L134.649 9.89339C137.224 9.91205 139.773 10.2814 142.328 10.5654C152.531 11.8507 162.497 14.9694 171.599 19.7347C180.691 24.4867 189.092 30.6481 196.04 38.1974C202.997 45.7254 208.692 54.3881 212.809 63.7387C204.184 45.2214 189.344 29.7027 171.133 20.6481C166.625 18.3027 161.849 16.5374 157.037 14.9401C154.592 14.2707 152.147 13.58 149.672 13.0307L145.931 12.3347L144.061 11.9867C143.433 11.8974 142.801 11.8414 142.172 11.7681C139.649 11.5001 137.135 11.1427 134.593 11.136L130.792 11.0014C129.525 11.0041 128.257 11.0614 126.989 11.088C121.923 11.3094 116.877 11.94 111.916 12.9827C101.987 15.0547 92.4464 18.8947 83.7755 24.1574C75.1063 29.4427 67.414 36.268 60.9401 44.0867C48.0146 59.7814 40.685 79.9774 40.474 100.421Z" fill="#17282F"/>
<path d="M54.4766 34.2202C58.6615 28.7215 63.5755 23.7656 68.9855 19.4216C74.3954 15.0722 80.3547 11.4149 86.6131 8.39889C92.9162 5.47889 99.5303 3.20556 106.328 1.7989C108.037 1.50023 109.734 1.14019 111.45 0.894859C113.172 0.692192 114.886 0.436208 116.609 0.277541L121.793 0.000197352L126.976 0.0295593L121.812 0.353583L116.681 0.92689C114.977 1.15489 113.284 1.46292 111.587 1.72559C109.897 2.02825 108.229 2.44556 106.551 2.7989C99.8776 4.39623 93.3579 6.62953 87.1818 9.60287C80.9599 12.4789 75.0948 16.0989 69.6131 20.2269C64.1298 24.3589 59.0828 29.0762 54.4766 34.2202Z" fill="#17282F"/>
<path d="M449.969 194.209C470.167 191.031 489.083 180.845 502.732 165.776C509.528 158.236 515.164 149.633 519.133 140.289C523.081 130.945 525.495 120.948 526.103 110.823C526.412 105.763 526.304 100.679 525.785 95.6348C525.628 94.3775 525.503 93.1148 525.321 91.8601L524.635 88.1188C524.259 85.6055 523.54 83.1681 522.908 80.7121C522.744 80.1001 522.597 79.4815 522.419 78.8748L521.801 77.0748L520.569 73.4748C519.668 71.1068 518.628 68.7868 517.611 66.4655C515.332 61.9361 512.891 57.4668 509.915 53.3481C498.311 36.6455 480.801 24.2174 461.228 18.3748C471.076 21.0881 480.476 25.4655 488.935 31.2548C497.412 37.0321 504.728 44.4495 510.751 52.7548C516.787 61.0668 521.323 70.4761 524.076 80.3828C524.728 82.8695 525.463 85.3375 525.856 87.8828L526.565 91.6735C526.755 92.9441 526.889 94.2241 527.053 95.4988C527.597 100.612 527.732 105.771 527.431 110.908C526.775 121.181 524.285 131.312 520.247 140.765C516.172 150.208 510.48 158.947 503.484 166.468C496.505 174.013 488.185 180.272 479.111 185.027C470.008 189.765 460.073 192.765 449.969 194.209Z" fill="#17282F"/>
<path d="M537.78 101.711C537.556 94.8096 536.72 87.9523 535.172 81.263C533.624 74.5776 531.456 68.0363 528.537 61.8336C525.716 55.587 522.155 49.687 518.068 44.175C517.009 42.8256 515.999 41.4336 514.897 40.1163C513.768 38.8243 512.668 37.5016 511.508 36.2323L507.945 32.4936L504.196 28.9283L508.187 32.2363L511.98 35.7803C513.199 37.0083 514.348 38.3056 515.537 39.567C516.695 40.8576 517.764 42.2243 518.883 43.5509C523.185 48.9976 526.793 54.9883 529.747 61.2763C532.605 67.6083 534.821 74.2403 536.172 81.0496C537.525 87.8536 538.107 94.8083 537.78 101.711Z" fill="#17282F"/>
<path d="M386.845 213.465C383.772 225.041 378.907 236.204 372.135 246.151C365.353 256.069 356.925 264.904 347.184 271.996C337.467 279.111 326.519 284.553 314.971 288.012C303.413 291.427 291.279 292.945 279.228 292.311C273.207 291.964 267.219 291.109 261.339 289.783C259.876 289.419 258.404 289.089 256.951 288.696L252.632 287.357C249.723 286.555 246.948 285.363 244.14 284.268C243.441 283.988 242.733 283.727 242.043 283.429L240.007 282.447L235.935 280.483C234.569 279.845 233.308 279.009 231.989 278.281C230.691 277.517 229.364 276.8 228.089 275.997C223.063 272.681 218.163 269.14 213.769 265.013L210.453 261.948L207.359 258.659C205.225 256.531 203.42 254.112 201.497 251.799C200.509 250.663 199.699 249.391 198.819 248.171L196.228 244.479L193.896 240.617C193.125 239.325 192.307 238.064 191.667 236.7C186.055 226.069 182.215 214.529 180.371 202.683C184.479 226.299 196.56 248.429 214.456 264.251C218.852 268.287 223.731 271.747 228.704 275.021C229.968 275.812 231.283 276.516 232.569 277.267C233.876 277.983 235.124 278.807 236.479 279.431L240.509 281.36L242.525 282.324C243.211 282.616 243.911 282.872 244.603 283.147C247.383 284.219 250.127 285.389 253.007 286.172L257.28 287.481C258.719 287.865 260.175 288.184 261.62 288.54C267.436 289.832 273.352 290.653 279.299 290.98C291.195 291.647 303.188 290.188 314.625 286.849C326.065 283.487 336.871 278.083 346.584 271.171C366.012 257.285 380.436 236.585 386.845 213.465Z" fill="#17282F"/>
<path d="M350.86 284.247C344.419 289.168 337.339 293.27 329.885 296.53C322.431 299.795 314.573 302.13 306.569 303.635C298.549 305.038 290.371 305.603 282.244 305.152C280.217 304.975 278.185 304.874 276.168 304.635C274.155 304.347 272.135 304.123 270.133 303.784C268.144 303.37 266.149 302.99 264.172 302.55L258.299 300.971L264.244 302.204C266.237 302.544 268.24 302.824 270.233 303.138C272.233 303.403 274.247 303.574 276.249 303.796C278.257 303.974 280.277 304.014 282.288 304.127C290.341 304.363 298.42 303.812 306.333 302.326C314.265 300.944 322.021 298.623 329.488 295.59C336.956 292.554 344.105 288.716 350.86 284.247Z" fill="#17282F"/>
<path d="M358.273 188.605C357.432 196.271 355.459 203.581 352.513 210.377L366.029 220.08L359.036 232.189L343.916 225.352C339.447 231.427 334.095 236.817 328.048 241.327L334.896 256.499L322.788 263.48L313.112 250.017C306.328 253.001 299.031 255.027 291.38 255.895L289.723 272.46H275.747L274.104 255.96C266.452 255.119 259.128 253.147 252.332 250.201L242.628 263.717L230.52 256.723L237.343 241.589C231.269 237.132 225.892 231.781 221.383 225.735L206.211 232.584L199.216 220.475L212.692 210.799C209.708 204.015 207.683 196.717 206.803 189.067L190.236 187.409V173.433L206.749 171.791C207.591 164.125 209.563 156.816 212.508 150.005L198.992 140.303L205.987 128.207L221.107 135.031C225.576 128.956 230.927 123.565 236.976 119.056L230.125 103.897L242.235 96.9026L251.897 110.365C258.695 107.381 266.005 105.356 273.656 104.476L275.3 87.9239H289.276L290.919 104.436C298.571 105.265 305.895 107.236 312.691 110.181L322.407 96.6786L334.503 103.673L327.679 118.793C333.753 123.263 339.131 128.615 343.64 134.663L358.812 127.812L365.807 139.921L352.331 149.597C355.315 156.381 357.339 163.679 358.208 171.317L374.785 172.987V186.963L358.273 188.605Z" fill="#FABB1E"/>
<path d="M190.833 117.846C189.28 126 186.127 133.58 181.715 140.243L191.579 152.42L176.171 167.02L165.22 157.142C158.401 161.848 150.589 165.25 142.185 166.943L140.664 181.527L119.447 180.968L118.732 167.16C109.988 165.576 101.911 162.175 94.875 157.344L84.0645 166.104L69.4639 150.711L78.4265 140.787C73.5958 133.642 70.2254 125.442 68.7187 116.634L54.9573 115.19L55.5161 93.9722L69.1693 93.2735C70.9707 84.6695 74.5587 76.7469 79.5291 69.8815L70.3811 58.6055L85.7729 44.0055L96.5833 53.7602C103.48 49.3642 111.308 46.2882 119.68 44.9069L121.295 29.4989L142.512 30.0575L143.304 45.5282C151.335 47.2829 158.759 50.6069 165.267 55.1429L177.879 44.9069L192.479 60.3149L181.808 72.1509C186.127 78.7202 189.217 86.1602 190.785 94.1282L206.985 95.8202L206.427 117.039L190.833 117.846Z" fill="#33535F"/>
<path d="M123.245 125.839L137.895 125.974C138.143 124.859 139.109 120.616 139.865 118.766C140.383 117.519 141.596 116.454 143.133 115.103C146.615 112.047 151.381 107.862 152.644 97.8749C153.363 92.1362 151.119 85.3322 146.929 80.5402C144.119 77.3269 139.085 73.4815 131.057 73.4082C123.049 73.3455 117.912 77.0935 115.043 80.2575C110.768 84.9735 108.406 91.7322 109.024 97.4735C110.095 107.479 114.783 111.751 118.207 114.87C119.72 116.25 120.916 117.339 121.406 118.595C122.137 120.46 123.019 124.719 123.245 125.839ZM138.429 126.646L122.696 126.5L122.644 126.234C122.634 126.18 121.591 120.894 120.785 118.838C120.351 117.727 119.207 116.684 117.757 115.363C114.453 112.351 109.458 107.8 108.361 97.5442C107.723 91.6215 110.153 84.6602 114.549 79.8095C117.511 76.5429 122.778 72.7029 131.064 72.7415C139.339 72.8175 144.532 76.7855 147.431 80.1015C151.741 85.0309 154.047 92.0389 153.305 97.9575C152.012 108.196 146.933 112.654 143.573 115.604C142.101 116.896 140.939 117.918 140.481 119.02C139.648 121.059 138.499 126.327 138.487 126.38L138.429 126.646Z" fill="white"/>
<path d="M126.578 126.32L122.293 102.112L123.273 101.939L127.558 126.146L126.578 126.32Z" fill="white"/>
<path d="M135.025 126.396L134.049 126.205L138.78 102.081L139.756 102.272L135.025 126.396Z" fill="white"/>
<path d="M127.553 100.92C126.797 100.914 126.63 101.795 126.624 102.536C126.613 103.658 126.959 105.088 127.536 106.376L127.663 106.174C128.494 104.763 129.009 102.463 128.418 101.419C128.231 101.087 127.948 100.923 127.554 100.92H127.553ZM134.16 100.979C133.265 100.972 132.936 102.204 132.926 103.263C132.916 104.412 133.265 105.91 134.015 106.879C134.621 105.572 134.987 104.036 134.999 102.802C135.003 102.255 134.932 100.987 134.16 100.979ZM130.953 110.192H130.952C129.526 110.179 128.307 108.896 127.45 107.294C127.03 107.732 126.585 107.963 126.151 107.96H126.149C123.828 107.939 122.952 103.198 122.916 102.995L123.405 102.908C123.632 104.17 124.567 107.448 126.154 107.463H126.155C126.486 107.466 126.853 107.236 127.21 106.818C126.513 105.348 126.115 103.699 126.126 102.532C126.138 101.184 126.66 100.415 127.557 100.422H127.559C128.129 100.427 128.576 100.687 128.852 101.174C129.558 102.424 129.007 104.872 128.091 106.427C127.992 106.594 127.89 106.751 127.785 106.892C128.586 108.45 129.726 109.683 130.956 109.695H130.957C132.072 109.703 133.06 108.699 133.781 107.351C132.903 106.355 132.415 104.767 132.429 103.258C132.444 101.536 133.109 100.474 134.164 100.482H134.165C135.024 100.49 135.509 101.338 135.496 102.806C135.484 104.051 135.084 105.788 134.368 107.266C134.767 107.631 135.251 107.859 135.824 107.864H135.825C137.181 107.875 138.424 104.594 138.788 103.328L139.267 103.466C139.121 103.97 137.797 108.378 135.821 108.362H135.819C135.18 108.356 134.616 108.112 134.141 107.706C133.361 109.123 132.275 110.203 130.953 110.192Z" fill="white"/>
<path d="M121.507 128.836L139.584 129.001L139.612 126.005L121.535 125.839L121.507 128.836ZM140.244 129.675L120.834 129.496L120.874 125.165L140.284 125.344L140.244 129.675Z" fill="white"/>
<path d="M121.468 133.091L139.545 133.257L139.572 130.26L121.496 130.095L121.468 133.091ZM140.205 133.931L120.795 133.751L120.835 129.421L140.245 129.6L140.205 133.931Z" fill="white"/>
<path d="M121.429 137.347L139.507 137.512L139.533 134.516L121.457 134.35L121.429 137.347ZM140.167 138.186L120.756 138.007L120.796 133.678L140.207 133.856L140.167 138.186Z" fill="white"/>
<path d="M300.616 144.911L312.848 155.343C313.651 154.466 316.465 151.112 316.328 147.44C316.252 145.404 315.28 143.578 313.439 142.007C311.603 140.44 309.663 139.786 307.688 140.056C304.092 140.55 301.319 143.968 300.616 144.911ZM312.891 156.255L299.724 145.027L299.889 144.78C300.02 144.586 303.139 140.01 307.595 139.396C309.763 139.099 311.881 139.804 313.871 141.499C315.861 143.196 316.912 145.188 316.995 147.419C317.164 151.972 313.273 155.875 313.108 156.039L312.891 156.255Z" fill="white"/>
<path d="M263.081 216.562L262.567 216.137L312.688 155.499L300.489 145.096L250.375 205.725L249.86 205.301L300.405 144.149L313.62 155.418L313.411 155.671L263.081 216.562Z" fill="white"/>
<path d="M298.119 145.768L312.449 157.988L314.025 156.081L299.695 143.861L298.119 145.768ZM312.533 158.935L297.187 145.849L299.612 142.915L314.957 156.001L312.533 158.935Z" fill="white"/>
<path d="M295.907 148.443L310.237 160.664L311.815 158.758L297.484 146.536L295.907 148.443ZM310.321 161.611L294.975 148.524L297.4 145.59L312.747 158.676L310.321 161.611Z" fill="white"/>
<path d="M250.509 206.124L248.752 220.251L251.78 219.317L262.164 216.069L262.14 214.184C261.456 214.305 260.099 214.545 260.099 214.545L259.712 214.613L259.681 212.088L257.251 212.517L257.247 210.012L254.792 210.417L254.788 207.915L252.335 208.32L252.331 205.82C251.301 205.993 250.779 206.08 250.509 206.124ZM247.96 221.192L249.915 205.495L250.192 205.499C250.376 205.472 251.72 205.247 252.608 205.097L252.996 205.032L253 207.536L255.453 207.129L255.457 209.632L257.912 209.227L257.916 211.724L260.339 211.295L260.369 213.82C261.048 213.7 262.383 213.464 262.417 213.459L262.796 213.399L262.837 216.557L247.96 221.192Z" fill="white"/>
<path d="M249.509 215.744L248.992 219.805L252.871 218.609L249.509 215.744ZM248.2 220.747L249.004 214.436L254.227 218.889L248.2 220.747Z" fill="white"/>
<path d="M256.708 204.756C259.889 200.327 263.221 196.023 266.577 191.739C269.929 187.452 273.405 183.267 276.813 179.027C280.333 174.879 283.793 170.68 287.369 166.579C290.948 162.477 294.545 158.395 298.299 154.439C295.12 158.869 291.787 163.172 288.433 167.457C285.076 171.741 281.605 175.929 278.193 180.167C274.669 184.313 271.215 188.515 267.635 192.613C264.059 196.715 260.459 200.797 256.708 204.756Z" fill="white"/>
<path d="M262.485 209.547C265.667 205.119 268.999 200.816 272.355 196.531C275.707 192.244 279.183 188.06 282.591 183.819C286.112 179.671 289.571 175.472 293.147 171.371C296.725 167.27 300.324 163.186 304.076 159.231C300.897 163.66 297.564 167.964 294.211 172.248C290.853 176.534 287.383 180.722 283.971 184.959C280.448 189.104 276.992 193.307 273.412 197.406C269.836 201.507 266.236 205.59 262.485 209.547Z" fill="white"/>
<path d="M493.245 117.846C491.692 126 488.539 133.58 484.127 140.243L493.991 152.42L478.583 167.02L467.632 157.142C460.813 161.848 453.001 165.25 444.599 166.943L443.076 181.527L421.859 180.968L421.145 167.16C412.4 165.576 404.324 162.175 397.287 157.344L386.477 166.104L371.877 150.711L380.839 140.787C376.008 133.642 372.637 125.44 371.131 116.634L357.369 115.19L357.929 93.9722L371.581 93.2735C373.384 84.6695 376.971 76.7469 381.943 69.8815L372.792 58.6055L388.185 44.0055L398.996 53.7602C405.893 49.3642 413.721 46.2882 422.092 44.9069L423.708 29.4989L444.924 30.0575L445.717 45.5282C453.747 47.2829 461.172 50.6069 467.679 55.1429L480.291 44.9069L494.892 60.3149L484.221 72.1509C488.539 78.7202 491.629 86.1602 493.199 94.1282L509.397 95.8202L508.84 117.039L493.245 117.846Z" fill="#33535F"/>
<path d="M413.42 140.915H415.34V79.4682H413.42V140.915ZM416.007 141.582H412.753V78.8016H416.007V141.582Z" fill="white"/>
<path d="M416.007 109.859H458.277L443.753 95.3694L458.277 80.88H416.007V109.859ZM459.889 110.525H415.34V80.2134H459.889L444.696 95.3694L459.889 110.525Z" fill="white"/>
<path d="M141.497 343.573H422.859V325.806H141.497V343.573Z" fill="white"/>
<path d="M422.859 343.573L422.8 325.805L422.859 325.864L282.177 326.148L141.497 326.304L141.996 325.805L141.976 343.573L141.497 343.095L422.859 343.573ZM422.859 343.573L141.497 344.053H141.019L141.017 343.573L140.999 325.805L140.997 325.307H141.497L282.177 325.463L422.859 325.748H422.917V325.805L422.859 343.573Z" fill="#17282F"/>
<path d="M144.92 340.438H326.967V328.943H144.92V340.438Z" fill="#FABB1E"/>
<path d="M163.231 328.943H153.804L153.805 328.942H163.231V328.943Z" fill="#E0E1DE"/>
<path d="M154.351 340.434H144.925L153.804 328.943H163.231L154.351 340.434Z" fill="#F4AC12"/>
<path d="M172.004 328.943H181.431V328.941H172.004V328.943Z" fill="#E0E1DE"/>
<path d="M172.537 340.434H163.112L172.004 328.943H181.431L172.537 340.434Z" fill="#F4AC12"/>
<path d="M190.204 328.943H199.631V328.941H190.204V328.943Z" fill="#E0E1DE"/>
<path d="M190.737 340.434H181.312L190.204 328.943H199.631L190.737 340.434Z" fill="#F4AC12"/>
<path d="M217.817 328.943H208.391L208.392 328.942H217.817V328.943Z" fill="#E0E1DE"/>
<path d="M208.924 340.434H199.497L208.391 328.943H217.817L208.924 340.434Z" fill="#F4AC12"/>
<path d="M226.591 328.943H236.017V328.941H226.591V328.943Z" fill="#E0E1DE"/>
<path d="M227.124 340.434H217.699L226.591 328.943H236.017L227.124 340.434Z" fill="#F4AC12"/>
<path d="M244.791 328.943H254.204V328.941H244.791V328.943Z" fill="#E0E1DE"/>
<path d="M245.324 340.434H235.897L244.791 328.943H254.204L245.324 340.434Z" fill="#F4AC12"/>
<path d="M272.404 328.943H262.977L262.979 328.942H272.404V328.943Z" fill="#E0E1DE"/>
<path d="M263.511 340.434H254.085L262.977 328.943H272.404L263.511 340.434Z" fill="#F4AC12"/>
<path d="M290.604 328.943H281.177V328.942H290.605L290.604 328.943Z" fill="#E0E1DE"/>
<path d="M281.711 340.434H272.285L281.177 328.943H290.604L281.711 340.434Z" fill="#F4AC12"/>
<path d="M308.791 328.943H299.363L299.364 328.942H308.791V328.943Z" fill="#E0E1DE"/>
<path d="M299.911 340.434H290.484L299.363 328.943H308.791L299.911 340.434Z" fill="#F4AC12"/>
<path d="M326.967 328.943H317.564V328.942H326.964V328.943" fill="#E0E1DE"/>
<path d="M318.099 340.434H308.672L317.564 328.943H326.967L326.964 328.98L318.099 340.434Z" fill="#F4AC12"/>
<path d="M326.964 340.434H326.871L326.964 340.314V340.434Z" fill="#F4AC12"/>
<path d="M256.877 354.15H258.133C258.727 354.15 259.185 353.68 259.196 353.108C259.185 352.515 258.727 352.046 258.133 352.046H256.877V354.15ZM258.133 355.284H256.877V357.5C256.877 357.806 256.623 358.062 256.305 358.062C256 358.062 255.744 357.806 255.744 357.5V351.474C255.744 351.158 256 350.911 256.305 350.911H256.316H258.133C259.349 350.911 260.329 351.892 260.329 353.108C260.329 354.302 259.349 355.284 258.133 355.284Z" fill="#040606"/>
<path d="M264.992 353.108C264.992 352.515 264.523 352.046 263.94 352.046H262.684V354.15H263.94C264.523 354.15 264.992 353.68 264.992 353.108ZM266.423 357.214C266.524 357.51 266.361 357.827 266.064 357.928L265.84 357.959H265.829C265.728 357.959 265.575 357.939 265.431 357.847C265.299 357.766 265.187 357.632 265.104 357.49C264.961 357.192 264.891 356.826 264.891 356.263C264.88 356.07 264.839 355.938 264.767 355.824C264.705 355.712 264.584 355.61 264.461 355.528C264.247 355.386 263.981 355.303 263.889 355.284H262.684V357.5C262.684 357.806 262.428 358.062 262.112 358.062C261.795 358.062 261.551 357.806 261.551 357.5V351.474C261.551 351.158 261.795 350.911 262.112 350.911H262.121H263.94C265.156 350.911 266.125 351.892 266.125 353.108C266.125 353.782 265.819 354.374 265.329 354.783C265.461 354.886 265.584 355.008 265.687 355.16C265.891 355.458 266.024 355.835 266.024 356.263C266.013 356.57 266.044 356.764 266.064 356.866C266.228 356.916 266.361 357.04 266.423 357.214Z" fill="#040606"/>
<path d="M273.403 354.384C273.403 353.69 273.127 353.047 272.708 352.598C272.279 352.138 271.707 351.872 271.095 351.872C270.441 351.872 269.868 352.138 269.44 352.598C269.011 353.047 268.745 353.69 268.745 354.384C268.745 355.079 269.011 355.723 269.44 356.162C269.868 356.622 270.441 356.898 271.095 356.898C271.707 356.898 272.279 356.622 272.708 356.162C273.127 355.723 273.403 355.079 273.403 354.384ZM273.535 351.8C274.169 352.474 274.567 353.374 274.567 354.384C274.567 355.396 274.169 356.304 273.535 356.968C272.932 357.632 272.033 358.062 271.095 358.062C270.115 358.062 269.215 357.632 268.592 356.968C267.959 356.304 267.581 355.396 267.581 354.384C267.581 353.374 267.959 352.474 268.592 351.8C269.215 351.126 270.115 350.708 271.095 350.708C272.033 350.708 272.932 351.126 273.535 351.8Z" fill="#040606"/>
<path d="M275.949 354.384C275.957 352.362 277.655 350.718 279.696 350.708C280.595 350.708 281.412 351.004 282.056 351.504C282.3 351.708 282.341 352.067 282.159 352.322C281.953 352.576 281.576 352.618 281.34 352.434C280.892 352.067 280.331 351.872 279.696 351.872C278.992 351.872 278.339 352.158 277.857 352.607C277.397 353.076 277.113 353.69 277.113 354.384C277.113 355.079 277.397 355.712 277.857 356.162C278.339 356.611 278.992 356.898 279.696 356.898C280.331 356.898 280.881 356.703 281.34 356.335C281.576 356.162 281.953 356.202 282.159 356.448C282.341 356.703 282.3 357.07 282.056 357.264C281.412 357.766 280.595 358.062 279.696 358.062C277.655 358.062 275.957 356.416 275.949 354.384Z" fill="#040606"/>
<path d="M284.133 357.5V351.474C284.133 351.158 284.379 350.911 284.695 350.911H284.705H284.727H288.035C288.332 350.911 288.596 351.158 288.596 351.474C288.596 351.791 288.332 352.046 288.035 352.046H285.267V353.914H287.647C287.952 353.914 288.208 354.18 288.208 354.476C288.208 354.792 287.952 355.048 287.647 355.048H285.267V356.927H288.035C288.332 356.927 288.596 357.182 288.596 357.5C288.596 357.806 288.332 358.062 288.035 358.062H284.727L284.705 358.051L284.695 358.062C284.379 358.062 284.133 357.806 284.133 357.5Z" fill="#040606"/>
<path d="M289.959 356.284C290.143 356.06 290.48 356.028 290.705 356.212C291.155 356.58 291.931 357.009 292.656 356.999C293.167 356.999 293.625 356.847 293.932 356.621C294.239 356.396 294.372 356.14 294.372 355.885C294.372 355.752 294.34 355.661 294.28 355.559C294.219 355.457 294.125 355.353 293.973 355.252C293.676 355.059 293.176 354.885 292.573 354.772H292.553C292.073 354.68 291.624 354.559 291.236 354.373C290.848 354.189 290.511 353.935 290.285 353.577C290.133 353.332 290.052 353.047 290.052 352.739C290.052 352.127 290.397 351.596 290.868 351.248C291.348 350.903 291.971 350.708 292.635 350.708C293.616 350.708 294.34 351.187 294.861 351.524C295.097 351.687 295.168 352.015 295.005 352.249C294.851 352.495 294.524 352.567 294.28 352.403C293.759 352.056 293.259 351.749 292.635 351.749C292.175 351.749 291.768 351.892 291.492 352.096C291.216 352.3 291.104 352.525 291.104 352.739C291.104 352.863 291.123 352.944 291.175 353.025C291.227 353.108 291.317 353.199 291.451 353.292C291.716 353.475 292.175 353.639 292.728 353.74H292.748C293.269 353.844 293.748 353.976 294.157 354.171C294.576 354.373 294.944 354.639 295.177 355.017C295.332 355.263 295.424 355.569 295.424 355.885C295.424 356.539 295.056 357.101 294.545 357.468C294.045 357.836 293.381 358.051 292.656 358.051C291.553 358.04 290.623 357.489 290.041 357.029C289.816 356.847 289.785 356.509 289.959 356.284Z" fill="#040606"/>
<path d="M296.664 356.284C296.847 356.06 297.184 356.028 297.409 356.212C297.859 356.58 298.635 357.009 299.36 356.999C299.871 356.999 300.331 356.847 300.636 356.621C300.944 356.396 301.076 356.14 301.076 355.885C301.076 355.752 301.045 355.661 300.984 355.559C300.923 355.457 300.831 355.353 300.677 355.252C300.381 355.059 299.881 354.885 299.279 354.772H299.259C298.779 354.68 298.329 354.559 297.941 354.373C297.553 354.189 297.216 353.935 296.991 353.577C296.839 353.332 296.756 353.047 296.756 352.739C296.756 352.127 297.103 351.596 297.572 351.248C298.053 350.903 298.675 350.708 299.34 350.708C300.32 350.708 301.045 351.187 301.565 351.524C301.801 351.687 301.873 352.015 301.709 352.249C301.556 352.495 301.228 352.567 300.984 352.403C300.463 352.056 299.963 351.749 299.34 351.749C298.88 351.749 298.472 351.892 298.196 352.096C297.92 352.3 297.808 352.525 297.808 352.739C297.808 352.863 297.828 352.944 297.88 353.025C297.931 353.108 298.021 353.199 298.155 353.292C298.42 353.475 298.88 353.639 299.432 353.74H299.452C299.973 353.844 300.452 353.976 300.861 354.171C301.281 354.373 301.648 354.639 301.883 355.017C302.036 355.263 302.128 355.569 302.128 355.885C302.128 356.539 301.76 357.101 301.249 357.468C300.749 357.836 300.085 358.051 299.36 358.051C298.257 358.04 297.328 357.489 296.745 357.029C296.52 356.847 296.491 356.509 296.664 356.284Z" fill="#040606"/>
<path d="M304.227 356.61C304.644 356.61 304.992 356.958 304.992 357.376C304.992 357.794 304.644 358.132 304.227 358.132C303.807 358.132 303.469 357.794 303.469 357.376C303.469 356.958 303.807 356.61 304.227 356.61Z" fill="#040606"/>
<path d="M306.573 356.61C306.992 356.61 307.34 356.958 307.34 357.376C307.34 357.794 306.992 358.132 306.573 358.132C306.155 358.132 305.817 357.794 305.817 357.376C305.817 356.958 306.155 356.61 306.573 356.61Z" fill="#040606"/>
<path d="M308.92 356.61C309.339 356.61 309.685 356.958 309.685 357.376C309.685 357.794 309.339 358.132 308.92 358.132C308.501 358.132 308.164 357.794 308.164 357.376C308.164 356.958 308.501 356.61 308.92 356.61Z" fill="#040606"/>
<path d="M81.4864 164.682C85.65 195.435 99.1688 227.019 104.264 231.787C109.811 236.978 137.423 239.708 151.435 240.411C156.023 240.642 159.604 209.164 155.913 205.926C154.039 204.279 146.981 204.395 139.951 204.51C133.138 204.622 126.351 204.734 124.332 203.243C123.042 202.29 103.931 176.984 93.939 161.907C84.6229 147.848 80.2229 155.346 81.4864 164.682Z" fill="#F68C95"/>
<path d="M147.487 244.847L151.959 203.272C151.959 203.272 129.081 204.325 126.216 202.281C123.353 200.237 101.572 169.976 93.3849 159.579C85.1979 149.181 75.5443 149.579 81.3265 173.837C87.5677 200.028 96.512 226.273 102.015 231.757C109.257 238.972 147.487 244.847 147.487 244.847Z" fill="#FABB1E"/>
<path d="M138.837 240.345C138.783 238.873 139.063 237.344 139.185 235.877C139.296 234.547 139.387 233.213 139.513 231.885C139.793 228.987 140.052 226.085 140.345 223.187C140.639 220.297 140.915 217.405 141.233 214.519C141.552 211.648 141.775 208.751 142.249 205.9L142.44 205.917C142.531 208.809 142.32 211.716 142.159 214.604C141.999 217.451 141.749 220.293 141.471 223.132C141.187 226.021 140.824 228.905 140.433 231.783C140.245 233.171 140.007 234.551 139.779 235.931C139.536 237.385 139.416 238.949 138.98 240.357L138.837 240.345Z" fill="#17282F"/>
<path d="M128.765 241.3C127.837 241.095 126.902 240.882 125.96 240.662C126.902 240.88 127.836 241.092 128.763 241.298L128.765 241.3ZM96.4697 222.167C91.5193 210.96 85.7432 192.387 81.3245 173.834C81.0745 172.784 80.8536 171.779 80.6604 170.818C80.8541 171.78 81.076 172.786 81.3265 173.838C85.7464 192.384 91.5208 210.958 96.4697 222.167Z" fill="#E0E1DE"/>
<path d="M83.2365 153.219C83.5318 153.147 83.8402 153.111 84.1599 153.111C84.3271 153.111 84.4974 153.121 84.6714 153.14L84.674 153.145C84.4948 153.125 84.3188 153.115 84.1459 153.115C83.8307 153.115 83.5271 153.149 83.2365 153.219Z" fill="#2C4954"/>
<path d="M128.763 241.297C127.836 241.092 126.902 240.88 125.96 240.661C115.938 238.316 105.467 235.191 102.018 231.753C100.41 230.155 98.5099 226.785 96.4698 222.167C91.5209 210.957 85.7465 192.384 81.3266 173.837C81.0761 172.785 80.8542 171.78 80.6605 170.817C78.337 159.264 79.9886 154.013 83.2365 153.219C83.5271 153.149 83.8307 153.115 84.1459 153.115C84.3189 153.115 84.4949 153.125 84.6741 153.145L128.763 241.297Z" fill="#F4AC12"/>
<path d="M157.432 150.987C166.696 141.943 179.929 139.456 191.363 143.444L172.025 162.323L178.561 176.491L192.569 183.367L211.919 164.475C215.632 176.025 212.816 189.183 203.552 198.228C190.515 210.955 169.611 210.716 156.871 197.667C144.144 184.631 144.395 163.713 157.432 150.987Z" fill="#D4D6D3"/>
<path d="M67.7969 330.778C58.5333 339.822 45.2994 342.308 33.8661 338.319L53.203 319.44L46.6666 305.272L32.6593 298.398L13.3099 317.288C9.59634 305.738 12.413 292.58 21.6765 283.536C34.713 270.808 55.6172 271.047 68.3578 284.096C81.0849 297.132 80.8333 318.05 67.7969 330.778Z" fill="#D4D6D3"/>
<path d="M162.484 171.645L183.028 192.688L68.1381 304.852L47.5948 283.809L162.484 171.645Z" fill="#D4D6D3"/>
<path d="M134.737 210.82L143.199 219.487L95.885 265.677L87.4246 257.012L134.737 210.82Z" fill="#BEBFBD"/>
<path d="M132.028 230.583C131.598 226.195 137.015 228.201 137.015 228.201C137.015 228.201 129.914 223.435 131.221 218.74C132.493 214.22 138.951 216.875 139.416 217.057C139.041 216.801 132.632 212.252 134.431 207.671C136.305 202.911 142.329 206.687 142.717 206.932C142.441 206.58 138.859 201.867 141.017 198.697C144.728 193.251 156.097 205.857 161.421 206.209L167.973 198.737C167.649 200.631 167.111 202.465 168.255 206.241C169.324 209.773 170.064 212.123 169.657 214.397C168.98 218.137 165.589 218.484 165.589 218.484C165.589 218.484 168.968 221.715 167.665 225.367C166.992 227.239 163.396 227.827 163.396 227.827C163.396 227.827 165.995 230.528 164.632 233.704C163.555 236.241 160.116 236.437 160.116 236.437C160.116 236.437 161.407 240.187 159.463 242.423C155.552 246.939 132.954 239.976 132.028 230.583Z" fill="#F68C95"/>
<path d="M163.187 204.723L167.861 198.902C168.081 198.728 168.311 198.546 168.531 198.39C176.28 192.818 188.067 196.075 183.895 201.504C180.727 205.639 171.912 204.902 169.28 209.607L169.271 209.598L163.187 204.723Z" fill="#F68C95"/>
<path d="M159.577 236.552L159.563 236.676C151.572 236.199 142.94 233.228 136.711 228.124C136.507 227.958 136.689 227.552 136.949 227.694C144.376 231.726 151.288 234.712 159.577 236.552Z" fill="#17282F"/>
<path d="M163.495 227.908L163.455 228.071C155.224 227.535 145.591 223.92 139.104 217.192C138.881 216.961 138.913 216.531 139.189 216.777C143.843 220.924 156.024 226.289 163.495 227.908Z" fill="#17282F"/>
<path d="M142.427 206.308C148.897 212.517 156.707 216.029 165.247 218.484L165.201 218.668C160.697 218.605 155.416 216.475 151.448 214.468C147.647 212.547 144.603 210.049 142.209 206.533C142.117 206.397 142.288 206.175 142.427 206.308Z" fill="#17282F"/>
<path d="M174.185 567.885C171.112 568.843 83.9396 566.974 80.6579 564.805C79.4188 563.996 78.947 551.272 78.8178 535.898C78.786 532.574 78.7828 529.16 78.7938 525.664C78.8036 521.541 78.8276 517.365 78.8755 513.31C79.1063 495.103 79.6563 475.073 79.6563 475.073L136.409 476.125L135.749 514.363L135.507 526.715L135.024 536.939C135.024 536.939 168.077 552.588 171.415 555.357C174.74 558.115 177.245 566.941 174.185 567.885Z" fill="#F68C95"/>
<path d="M174.185 567.885C171.112 568.843 83.9396 566.974 80.6579 564.805C79.4188 563.996 78.947 551.272 78.8178 535.898C78.786 532.574 78.7828 529.16 78.7938 525.664C78.8036 521.541 78.8276 517.365 78.8755 513.31L135.749 514.363L135.507 526.715L135.024 536.939C135.024 536.939 168.077 552.588 171.415 555.357C174.74 558.115 177.245 566.941 174.185 567.885Z" fill="white"/>
<path d="M174.447 568.02C172.447 568.637 135.311 568.082 108.286 567.022C102.032 566.773 96.314 566.494 91.7022 566.208C85.3459 565.797 81.0844 565.37 80.3984 564.919C78.8828 563.903 78.4943 545.243 78.512 525.564L135.545 526.619L135.061 536.897C135.061 536.897 168.3 552.629 171.664 555.413C175.001 558.197 177.519 567.05 174.447 568.02Z" fill="#FABB1E"/>
<path d="M173.263 564.488C158.576 563.812 99.2765 562.474 84.7078 562.922L84.7057 563.016C99.2484 564.003 158.557 564.858 173.257 564.729C173.568 564.727 173.572 564.503 173.263 564.488Z" fill="#17282F"/>
<path d="M137.207 533.68C131.447 532.476 124.356 533.212 119.849 537.237C119.675 537.394 119.899 537.639 120.088 537.584C125.831 535.908 131.184 534.868 137.168 534.409C137.589 534.377 137.619 533.765 137.207 533.68Z" fill="#17282F"/>
<path d="M141.327 536.284C135.568 535.08 128.476 535.817 123.97 539.843C123.795 539.999 124.02 540.244 124.208 540.188C129.952 538.513 135.304 537.472 141.288 537.013C141.709 536.981 141.739 536.369 141.327 536.284Z" fill="#17282F"/>
<path d="M145.447 538.889C139.688 537.686 132.596 538.422 128.09 542.447C127.915 542.603 128.14 542.848 128.328 542.793C134.071 541.119 139.423 540.077 145.408 539.619C145.829 539.586 145.86 538.975 145.447 538.889Z" fill="#17282F"/>
<path d="M149.567 541.493C143.808 540.291 136.716 541.027 132.21 545.052C132.035 545.208 132.259 545.453 132.448 545.398C138.192 543.722 143.543 542.681 149.528 542.224C149.949 542.191 149.979 541.579 149.567 541.493Z" fill="#17282F"/>
<path d="M137.864 530.641C135.516 531.518 133.14 532.275 130.826 533.237C132.625 530.696 134.307 528.089 136.36 525.732C137.341 524.607 138.369 523.468 139.496 522.486C141.249 520.958 148.132 517.772 146.977 524.095C146.34 527.58 140.66 529.596 137.864 530.641ZM148.173 520.536C145.968 517.358 141.707 518.675 139.249 520.651C135.269 523.852 131.739 528.91 130.06 533.707L130.192 533.918C130.199 534.358 130.584 534.832 131.083 534.659C135.896 532.994 141.248 531.808 145.405 528.716C147.833 526.91 150.259 523.541 148.173 520.536Z" fill="#17282F"/>
<path d="M112.874 527.703C110.395 521.773 117.799 523.415 119.838 524.534C121.148 525.252 122.396 526.144 123.595 527.035C126.106 528.9 128.304 531.087 130.604 533.186C128.138 532.737 125.656 532.508 123.175 532.152C120.219 531.729 114.24 530.972 112.874 527.703ZM115.396 531.881C120.119 534.015 125.599 534.029 130.656 534.628C131.181 534.691 131.455 534.146 131.369 533.715L131.453 533.479C128.789 529.152 124.259 524.965 119.687 522.688C116.865 521.282 112.42 520.905 110.945 524.481C109.549 527.864 112.639 530.636 115.396 531.881Z" fill="#17282F"/>
<mask id="mask0_32_288" style="mask-type:luminance" maskUnits="userSpaceOnUse" x="92" y="566" width="11" height="1">
<path d="M102.48 566.776C98.8844 566.616 95.5588 566.444 92.6355 566.265C95.5584 566.44 98.8834 566.612 102.48 566.776Z" fill="white"/>
</mask>
<g mask="url(#mask0_32_288)">
<path d="M92.6355 566.776H102.48V566.265H92.6355V566.776Z" fill="#CCCDCB"/>
</g>
<path d="M79.0459 555.811C78.8375 552.073 78.7011 547.408 78.6198 542.233C78.7031 547.406 78.8396 552.072 79.0469 555.811H79.0459Z" fill="#E0E1DE"/>
<path d="M79.2651 559.058C79.185 558.076 79.112 556.989 79.0459 555.811H79.047C79.1126 556.989 79.185 558.076 79.2651 559.058Z" fill="#CCCDCB"/>
<path d="M129.828 567.706C122.49 567.518 115.067 567.277 108.281 567.013C106.287 566.939 104.347 566.859 102.48 566.776C98.8834 566.612 95.5584 566.44 92.6355 566.265C92.3188 566.246 92.0074 566.227 91.7 566.207C85.3484 565.796 81.0823 565.373 80.4011 564.912C79.9156 564.588 79.5443 562.455 79.2651 559.058C79.185 558.076 79.1126 556.989 79.047 555.811C78.8396 552.072 78.7031 547.407 78.6198 542.234C78.573 539.24 78.5448 536.076 78.5312 532.823C89.5178 540.168 109.508 553.806 123.208 563.176C111.851 562.971 100.941 562.832 93.1246 562.832C89.6162 562.832 86.7307 562.86 84.7079 562.923L84.7058 563.016C91.4266 563.472 107.707 563.9 124.729 564.216C126.577 565.48 128.291 566.653 129.828 567.706Z" fill="#F4AC12"/>
<path d="M124.729 564.216C107.707 563.9 91.4265 563.472 84.7057 563.016L84.7078 562.923C86.7306 562.86 89.6161 562.832 93.1245 562.832C100.941 562.832 111.85 562.97 123.208 563.176C123.724 563.528 124.232 563.876 124.729 564.216Z" fill="#142228"/>
<path d="M136.627 530.903L75.862 530.968C75.862 530.968 79.4126 386.515 78.7162 383.113C77.0459 375.005 40.2136 246.468 40.2136 246.468L91.3579 247.348L100.713 247.653C100.713 247.653 133.156 355.756 136.561 375.496C142.464 409.705 136.627 530.903 136.627 530.903Z" fill="#17282F"/>
<path d="M133.195 520.077C123.095 519.818 92.639 518.751 79.1693 519.758L79.1682 519.952C83.7833 520.701 123.09 520.494 133.193 520.355C133.383 520.353 133.384 520.083 133.195 520.077Z" fill="#273E47"/>
<path d="M83.7943 379.892C81.8615 372.012 67.4375 322.915 63.0235 307.405C58.614 291.909 54.4729 276.325 50.6667 260.671C50.1839 258.684 49.6953 256.704 49.1667 254.729C49.1224 254.564 48.8828 254.637 48.9136 254.801C50.3683 262.684 52.2921 270.503 54.1459 278.3C56.0011 286.105 57.9755 293.877 60.0552 301.625C64.2344 317.192 68.7828 332.66 73.7375 347.997C76.2073 355.641 80.2807 371.341 82.4479 379.079C84.612 386.804 81.0751 512.437 81.3011 514.498C81.3645 515.077 82.212 515.089 82.2229 514.491C82.5027 499.529 85.7047 387.68 83.7943 379.892Z" fill="#273E47"/>
<path d="M91.364 247.342C91.364 247.342 78.8568 383.771 78.7188 383.107C77.1057 375.259 42.4833 254.388 40.3084 246.832C40.2374 246.59 40.2098 246.47 40.2098 246.47L91.364 247.342Z" fill="#273E47"/>
<path d="M107.015 571.356C103.942 572.313 16.7694 570.447 13.487 568.277C12.2474 567.467 11.7761 554.743 11.6474 539.369C11.6157 536.047 11.6115 532.631 11.6235 529.135C11.6323 525.013 11.6563 520.837 11.7047 516.783C11.9349 498.573 12.4855 482.547 12.4855 482.547L69.2386 483.598L68.5782 517.835L68.336 530.186L67.8531 540.41C67.8531 540.41 100.906 556.06 104.244 558.829C107.569 561.587 110.075 570.412 107.015 571.356Z" fill="#F68C95"/>
<path d="M107.015 571.356C103.942 572.313 16.7694 570.447 13.487 568.277C12.2474 567.467 11.7761 554.743 11.6474 539.369C11.6157 536.047 11.6115 532.631 11.6235 529.135C11.6323 525.013 11.6563 520.837 11.7047 516.783L68.5782 517.835L68.336 530.186L67.8531 540.41C67.8531 540.41 100.906 556.06 104.244 558.829C107.569 561.587 110.075 570.412 107.015 571.356Z" fill="white"/>
<path d="M107.275 571.492C105.275 572.109 68.1401 571.555 41.114 570.494C34.8614 570.244 29.1426 569.965 24.5312 569.68C18.1745 569.269 13.913 568.844 13.2276 568.391C11.7119 567.374 11.3239 548.715 11.3406 529.034L68.3745 530.091L67.8901 540.368C67.8901 540.368 101.129 556.101 104.493 558.885C107.83 561.669 110.348 570.521 107.275 571.492Z" fill="#FABB1E"/>
<path d="M106.092 567.958C91.4052 567.284 32.1057 565.946 17.5364 566.394L17.5349 566.486C32.077 567.473 91.3855 568.332 106.087 568.2C106.397 568.197 106.402 567.973 106.092 567.958Z" fill="#17282F"/>
<path d="M70.036 537.15C64.2765 535.948 57.186 536.682 52.6792 540.709C52.5041 540.865 52.7286 541.11 52.9177 541.056C58.6609 539.38 64.013 538.34 69.9973 537.881C70.4188 537.848 70.4478 537.236 70.036 537.15Z" fill="#17282F"/>
<path d="M74.1557 539.755C68.3969 538.552 61.3051 539.289 56.7989 543.313C56.6245 543.469 56.8483 543.716 57.0369 543.661C62.7806 541.984 68.1322 540.944 74.1171 540.486C74.539 540.453 74.5687 539.841 74.1557 539.755Z" fill="#17282F"/>
<path d="M78.276 542.36C72.5161 541.157 65.4255 541.893 60.9188 545.919C60.7443 546.073 60.9683 546.32 61.1573 546.265C66.9005 544.589 72.2527 543.549 78.2375 543.089C78.6588 543.058 78.688 542.446 78.276 542.36Z" fill="#17282F"/>
<path d="M82.3959 544.964C76.637 543.762 69.5459 544.499 65.0386 548.523C64.864 548.68 65.088 548.925 65.2766 548.869C71.0203 547.193 76.3724 546.153 82.3568 545.694C82.7787 545.663 82.8084 545.051 82.3959 544.964Z" fill="#17282F"/>
<path d="M70.6922 534.113C68.3454 534.989 65.9698 535.746 63.6558 536.71C65.4552 534.168 67.135 531.563 69.1896 529.203C70.1698 528.077 71.1979 526.94 72.3251 525.958C74.0782 524.429 80.9604 521.243 79.8063 527.567C79.1694 531.052 73.4896 533.068 70.6922 534.113ZM81.0022 524.008C78.797 520.829 74.5355 522.146 72.0782 524.124C68.099 527.324 64.5678 532.381 62.8896 537.179L63.0208 537.389C63.0287 537.829 63.4136 538.303 63.9126 538.131C68.7255 536.464 74.0771 535.28 78.2344 532.187C80.6615 530.381 83.088 527.013 81.0022 524.008Z" fill="#17282F"/>
<path d="M45.7027 531.174C43.224 525.244 50.6287 526.886 52.6677 528.005C53.9771 528.725 55.2255 529.616 56.4235 530.507C58.9349 532.372 61.1323 534.558 63.4339 536.657C60.9672 536.21 58.4844 535.979 56.0047 535.624C53.0484 535.2 47.0693 534.444 45.7027 531.174ZM48.2251 535.353C52.9473 537.486 58.4287 537.501 63.486 538.1C64.0104 538.163 64.2849 537.617 64.1979 537.185L64.2817 536.952C61.6183 532.624 57.088 528.437 52.5161 526.16C49.6932 524.753 45.2495 524.377 43.7735 527.955C42.3787 531.336 45.4683 534.108 48.2251 535.353Z" fill="#17282F"/>
<path d="M70.3354 536.167L8.82495 535.003C8.82495 535.003 26.4718 311.008 24.2776 298.999C20.686 279.342 23.7458 256.906 33.2026 246.252L94.4401 247.386C94.4401 247.386 95.336 273.304 88.8254 283.452C88.8254 283.452 83.015 286.976 80.1926 288.526L70.3354 536.167Z" fill="#17282F"/>
<path d="M68.6042 525.01C59.0755 524.584 63.149 524.57 53.6167 524.252C48.9516 524.096 18.2943 523.098 13.9178 523.716L13.9131 523.91C18.2563 524.736 48.9246 525.2 53.5922 525.267C63.1298 525.403 59.0594 525.258 68.5979 525.288C68.7766 525.288 68.7834 525.017 68.6042 525.01Z" fill="#273E47"/>
<path d="M34.237 298.399C33.8823 293.889 33.2312 289.408 32.824 284.904C32.0047 275.847 32.8506 266.821 34.9531 257.983C34.9922 257.819 34.7334 257.749 34.6984 257.915C33.0588 265.72 31.6099 273.517 31.8542 281.531C32.0959 289.471 33.3568 297.324 33.3375 305.284C33.3172 313.344 32.535 321.383 31.8694 329.408C31.2 337.481 30.5307 345.556 29.861 353.629C27.1698 386.08 24.6418 418.547 22.0615 451.008C21.3412 460.068 20.661 469.131 19.9678 478.193C19.2631 487.415 18.1974 507.498 17.6828 516.732C17.6386 517.529 18.8292 517.492 18.9084 516.724C20.5922 500.449 21.9448 473.236 23.287 456.929C24.6162 440.785 25.862 424.633 27.1479 408.487C28.4344 392.341 29.7031 376.193 30.9631 360.045C31.5927 351.972 32.1984 343.899 32.814 335.825C33.4266 327.784 34.1708 319.737 34.4402 311.676C34.588 307.251 34.5834 302.813 34.237 298.399Z" fill="#273E47"/>
<path d="M70.1526 267.183C70.1677 267.06 70.0172 266.876 69.9125 266.98C69.053 267.827 66.4521 273.843 57.3125 279.431C51.2426 283.143 42.9182 285.055 38.2838 285.639C37.974 285.679 38.0822 285.93 38.3609 285.947C43.2573 286.244 50.064 284.994 57.4973 280.984C68.2494 275.182 70.0088 268.354 70.1526 267.183Z" fill="#273E47"/>
<path d="M90.6806 282.7C85.0363 284.641 79.5895 287.4 74.3806 290.291C74.1765 290.403 74.3114 290.721 74.5327 290.625C80.0234 288.268 85.6223 286.012 90.9765 283.355C91.3973 283.147 91.1135 282.551 90.6806 282.7Z" fill="#273E47"/>
<path d="M92.5875 247.873C92.574 247.699 92.2407 247.661 92.2412 247.849C92.2563 253.855 91.8151 259.14 91.2385 264.755C90.9708 267.361 88.6266 281.769 83.7287 280.741C82.9084 280.569 82.4927 279.827 82.3694 278.687C82.2214 277.317 82.7891 275.633 83.0417 274.268C83.6011 271.252 84.0531 268.227 84.3479 265.18C84.9 259.493 84.9531 253.811 84.2312 248.148C84.2079 247.961 83.9162 247.977 83.9146 248.165C83.8844 256.033 83.6224 263.888 82.3084 271.685C81.6765 275.433 79.6027 281.081 83.8495 281.639C88.1781 282.207 91.0235 272.749 91.5646 270.164C93.074 262.948 93.1697 255.164 92.5875 247.873Z" fill="#273E47"/>
<path d="M83.8541 281.081C83.4109 282.131 83.0547 283.223 82.7511 284.321C82.5156 285.175 82.1953 286.095 82.2921 286.984C82.3115 287.156 82.5401 287.173 82.6323 287.057C83.2073 286.327 83.4505 285.329 83.7713 284.465C84.1448 283.463 84.5391 282.468 84.8839 281.456C85.112 280.784 84.1271 280.433 83.8541 281.081Z" fill="#273E47"/>
<path d="M21.4604 264.86C21.6625 265.103 106.908 267.068 107.765 266.165C108.963 264.895 101.191 175.185 87.1401 155.113C83.6265 150.095 70.8292 146.473 65.3806 151.401C49.5984 165.677 46.1254 177.86 41.9021 187.788C38.776 195.143 34.9193 207.719 31.4188 220.623C25.6234 241.88 20.7437 263.983 21.4604 264.86Z" fill="#FABB1E"/>
<path d="M52.8146 163.346C35.1875 184.637 15.0755 223.489 17.6818 231.518C24.7662 253.338 31.786 272.213 38.8667 284.012C42.1323 289.454 72.3255 272.496 69.2834 267.23C63.0454 256.434 51.0235 230.452 49.149 226.769C48.0698 224.651 58.1594 189.692 64.2588 170.375C70.8891 149.373 61.3495 153.038 52.8146 163.346Z" fill="#F68C95"/>
<path d="M28.5964 276.455L65.7266 258.32C65.7266 258.32 51.1219 225.737 51.0979 222.22C51.074 218.701 63.1224 179.216 66.7443 166.488C70.3667 153.76 65.0438 145.793 49.1875 165.041C33.3323 184.289 17.0719 215.679 15.4948 223.284C13.9183 230.891 28.5964 276.455 28.5964 276.455Z" fill="#FABB1E"/>
<path d="M60.787 186.56C61.7552 183.966 62.8364 181.431 63.8766 178.867C63.9516 178.68 64.2776 178.802 64.2084 178.992C62.9751 182.419 61.8194 185.882 60.6678 189.342C61.5364 187.764 62.4178 186.195 63.3448 184.65C63.4208 184.522 63.6203 184.628 63.5484 184.762C62.512 186.676 61.4178 188.555 60.3047 190.427C60.0266 191.262 51.9292 220.155 51.8506 221.256C51.7594 222.527 52.023 223.74 52.3984 224.948C53.0755 227.126 53.8323 229.283 54.6016 231.43C56.1484 235.742 57.8364 240.002 59.6047 244.228C61.6167 249.035 63.9042 253.791 66.1896 258.476L64.764 258.874L64.6891 258.792L65.5855 258.336C63.2626 254.274 61.0454 250.291 59.0979 246.031C57.1698 241.815 55.4292 237.518 53.8688 233.154C53.0651 230.906 52.2943 228.647 51.5803 226.37C50.8807 224.142 50.4719 222.056 50.9552 219.732C51.4391 217.404 59.7943 189.223 60.787 186.56Z" fill="#17282F"/>
<path d="M27.9869 265.997C29.2375 265.22 30.7047 264.705 32.0391 264.084C33.2489 263.52 34.4505 262.936 35.6683 262.388C38.3229 261.192 40.9708 259.979 43.6323 258.795C46.2864 257.616 48.9339 256.42 51.5984 255.264C54.2495 254.116 56.8745 252.872 59.586 251.869L59.6656 252.044C57.1995 253.559 54.5703 254.817 51.9839 256.109C49.4328 257.383 46.8407 258.577 44.2385 259.744C41.5885 260.931 38.9041 262.047 36.2125 263.136C34.9145 263.66 33.5984 264.139 32.286 264.625C30.9031 265.137 29.486 265.809 28.0469 266.128L27.9869 265.997Z" fill="#17282F"/>
<path d="M81.2912 164.263C77.5229 164.93 68.7131 158.882 64.8536 153.314C64.5912 152.931 64.7604 148.595 64.7183 143.316C64.6797 140.114 64.5604 136.547 64.2183 133.302L85.0984 136.096C85.0984 136.096 83.8156 143.112 84.4484 148.767C84.5068 149.239 84.6005 149.675 84.7292 150.084L84.7817 150.302C85.4625 152.788 87.1921 163.216 81.2912 164.263Z" fill="#F68C95"/>
<path d="M84.7271 150.088L84.7891 150.307C84.1579 150.459 83.4604 150.573 82.6953 150.637C70.8719 151.621 66.4031 137.412 65.3973 133.472L85.1031 136.095C85.1031 136.095 83.8172 143.112 84.4453 148.761C84.5145 149.237 84.6084 149.68 84.7271 150.088Z" fill="#17282F"/>
<path d="M60.9453 105.829C58.6166 113.052 62.1193 134.077 67.2073 138.834C74.5849 145.729 86.826 146.569 92.7254 137.664C98.4442 129.033 93.3937 101.71 87.6948 97.3718C79.301 90.9825 64.3854 95.1598 60.9453 105.829Z" fill="#F68C95"/>
<path d="M81.9391 118.979L81.8536 119.124C82.1579 120.527 82.2694 122.187 81.0776 122.889L81.1036 122.967C82.6224 122.46 82.4522 120.26 81.9391 118.979Z" fill="#17282F"/>
<path d="M80.4079 117.735C78.1047 117.979 78.7625 122.567 80.8959 122.342C82.9964 122.119 82.338 117.531 80.4079 117.735Z" fill="#17282F"/>
<path d="M89.9989 117.687L90.1265 117.796C90.2854 119.224 90.7073 120.832 92.0598 121.12V121.2C90.4588 121.206 89.9208 119.064 89.9989 117.687Z" fill="#17282F"/>
<path d="M91.0558 116.02C93.3156 115.52 94.1527 120.079 92.0584 120.541C89.9964 121 89.1604 116.44 91.0558 116.02Z" fill="#17282F"/>
<path d="M78.2964 115.898C78.8989 115.651 79.413 115.322 79.9838 115.016C80.627 114.671 81.1754 114.463 81.5328 113.791C81.725 113.43 81.5412 112.858 81.2084 112.639C80.4328 112.127 79.5401 112.355 78.7473 112.739C77.889 113.154 77.3333 113.695 76.9312 114.559C76.5406 115.396 77.5021 116.222 78.2964 115.898Z" fill="#17282F"/>
<path d="M92.3954 114.004C91.7448 113.991 91.1469 113.872 90.5047 113.794C89.7797 113.703 89.1927 113.707 88.6172 113.208C88.3074 112.942 88.2714 112.343 88.5031 112.018C89.0418 111.26 89.9568 111.151 90.8334 111.222C91.785 111.299 92.4979 111.603 93.186 112.263C93.8516 112.903 93.2542 114.02 92.3954 114.004Z" fill="#17282F"/>
<path d="M82.0823 132.413C82.4708 132.697 82.8755 133.107 83.3973 133.076C83.8979 133.047 84.4464 132.741 84.8745 132.5L84.9464 132.564C84.6552 133.163 83.9281 133.615 83.2527 133.595C82.5932 133.573 82.1953 133.064 81.9552 132.497L82.0823 132.413Z" fill="#17282F"/>
<path d="M82.9661 127.944C83.9379 129.064 85.2046 129.571 86.5046 129.635C87.0859 129.667 87.6822 129.601 88.2567 129.465L88.5843 129.379L88.8879 129.287C89.051 129.239 89.1223 129.088 89.1286 128.927L89.1265 128.917L89.0917 128.773L89.0906 128.763L89.0697 128.639C88.9431 127.54 88.5983 125.891 88.5983 125.891C89.0265 126.033 91.1969 126.659 91.0827 126.091C90.1213 121.4 89.0521 116.181 87.1057 111.715C87.0489 111.565 86.815 111.635 86.851 111.788C87.5963 116.335 89.1359 120.719 89.9573 125.273C89.2713 125.12 88.1447 124.815 87.5739 124.908C87.425 124.975 88.2969 128.083 88.3145 128.581L88.3125 128.635C86.5078 129.132 85.0421 128.776 83.0806 127.797L82.9661 127.944Z" fill="#17282F"/>
<path d="M87.5317 129.003C87.5317 129.003 86.7495 130.451 85.4885 131.113C85.0245 131.359 84.5073 131.504 83.9339 131.436C82.7563 131.3 82.5781 130.263 82.6588 129.343C82.7229 128.585 82.9724 127.905 82.9724 127.905C82.9724 127.905 84.8516 129.219 87.5317 129.003Z" fill="#17282F"/>
<path d="M85.4885 131.113C85.0245 131.359 84.5073 131.504 83.9339 131.436C82.7563 131.3 82.5781 130.263 82.6588 129.343C83.8932 129.293 85.2161 129.945 85.4885 131.113Z" fill="#F578BA"/>
<path d="M92.0697 105.396C91.7661 104.801 89.9754 100.663 89.1499 100.705C88.1078 100.745 87.5453 102.504 85.6473 103.176C82.977 104.148 77.9578 101.504 74.2603 102.811C70.6625 104.08 68.5978 107.86 68.365 114.621C68.1322 121.396 63.2469 127.184 61.4197 122.887C61.3635 122.729 61.251 122.452 61.0811 122.056C60.039 115.672 59.5245 108.179 60.6275 104.781C64.0639 94.1186 80.7838 91.28 88.1374 96.728C90.9317 98.7986 92.0697 102.419 92.0697 105.396Z" fill="#17282F"/>
<path d="M66.9079 123.609C66.9079 123.609 62.1375 116.849 59.0677 118.553C55.9979 120.257 59.6063 130.072 63.224 131.4C66.8421 132.729 68.138 129.404 68.138 129.404L66.9079 123.609Z" fill="#F68C95"/>
<path d="M60.1719 121.341L60.1531 121.437C62.6901 122.453 64.0339 124.795 64.9781 127.227C64.2208 126.292 63.1927 125.783 61.9417 126.685L62.0104 126.82C63.0469 126.593 63.7964 126.769 64.5011 127.599C64.9995 128.184 65.3421 128.927 65.7005 129.604C65.8197 129.829 66.2287 129.708 66.1417 129.447L66.1203 129.388C66.1697 126.159 63.6401 121.651 60.1719 121.341Z" fill="#17282F"/>
<path d="M85.2531 152.125L83.0755 162.399L64.6693 149.064L60.9609 154.532C60.9609 154.532 78.7213 177.304 78.6828 176.184L83.8588 164.759L90.5959 171.517L88.4245 156.005L85.2531 152.125Z" fill="#E7E8E5"/>
<path d="M89.7339 162.391C89.1735 159.384 89.3017 159.135 88.6031 156.156C88.5777 156.051 88.4042 156.023 88.3933 156.152C88.1345 159.152 89.7303 167.846 90.0474 170.626L90.0121 170.598C89.6714 170.318 83.911 164.654 83.8589 164.759C82.9673 166.559 78.7902 174.966 78.6198 175.692C75.8094 172.074 65.1277 158.975 61.9115 155.62L61.7422 155.747C64.3053 159.616 78.4803 177.28 78.6563 177.206C78.7922 177.287 83.6542 166.999 83.9897 165.151C85.2365 166.355 91.1506 172.798 91.1189 172.346C90.9058 169.286 90.2943 165.403 89.7339 162.391Z" fill="#17282F"/>
<path d="M509.167 450.112C509.593 439.592 509.421 429.054 508.732 418.548C507.311 396.883 503.743 375.384 498.844 354.244C496.088 342.346 492.692 330.646 489.155 318.959C489.048 318.607 488.485 318.707 488.583 319.074C499.523 360.27 508.5 402.783 507.881 445.606C507.708 457.589 506.32 469.361 505.183 481.271C505.152 481.589 505.676 481.716 505.749 481.389C508.007 471.198 508.741 460.519 509.167 450.112Z" fill="#FABB1E"/>
<path d="M488.583 319.073C488.583 319.073 472.008 361.141 475.72 371.029C479.431 380.917 487.08 383.027 487.08 383.027C487.08 383.027 476.94 397.504 484.025 411.083C491.112 424.661 506.856 424.02 507.903 439.416C507.903 439.416 508.78 375.04 488.583 319.073Z" fill="#FABB1E"/>
<path d="M506.101 412.835L506.084 412.614C503.757 384.01 498.681 355.495 490.008 327.987L489.872 328.016C493.156 340.322 496.077 352.694 498.575 365.134C496.423 362.916 493.607 361.643 490.664 360.723L490.633 360.807C493.699 362.131 496.635 363.668 498.801 366.266C499.285 368.703 499.76 371.142 500.209 373.586C496.505 369.446 491.369 367.392 486.229 365.44L486.189 365.552C491.543 367.732 496.875 370.539 500.501 375.152C501.765 382.134 502.872 389.139 503.831 396.167C501.121 393.338 497.781 391.436 493.947 390.503L493.884 390.679C497.823 391.814 501.211 394.018 503.907 397.099L503.969 397.146C504.3 399.619 504.615 402.094 504.907 404.571C502.821 402.792 500.517 401.44 497.98 400.394L497.943 400.499C500.519 401.595 502.839 403.178 504.88 405.091L504.968 405.126C505.244 407.482 505.519 409.839 505.757 412.199C501.957 407.62 497.26 404.307 491.701 402.163L491.64 402.332C497.045 404.682 501.809 408.404 505.495 412.991C505.595 413.118 505.727 413.138 505.843 413.1C506.201 416.722 506.521 420.347 506.788 423.979L506.871 423.983C506.661 420.267 506.401 416.55 506.101 412.835Z" fill="#17282F"/>
<path d="M492.784 356.541C489.909 354.567 486.257 353.724 482.827 353.437L482.817 353.564C486.387 354.093 489.385 355.385 492.664 356.78C492.805 356.841 492.908 356.627 492.784 356.541Z" fill="#17282F"/>
<path d="M494.796 401.08C492.521 399.715 489.928 398.944 487.321 398.523L487.312 398.665C489.957 399.144 492.3 400.087 494.705 401.259L494.796 401.08Z" fill="#17282F"/>
<path d="M552.735 371.716C545.824 376.575 539.191 382.18 533.553 388.484C527.543 395.204 523.16 402.833 520.099 411.299C513.828 428.644 510.391 447.433 510.076 465.867C509.9 476.2 510.82 486.453 513.031 496.553C513.112 496.92 513.661 496.816 513.604 496.445C510.901 478.676 511.001 460.541 513.904 442.804C516.755 425.403 521.225 406.468 532.287 392.325C538.311 384.624 545.821 378.565 553.245 372.303C553.636 371.975 553.137 371.433 552.735 371.716Z" fill="#FABB1E"/>
<path d="M512.516 453.336C512.516 453.336 518.208 443.749 526.5 435.461C534.789 427.173 541.773 421.281 542.851 415.799C543.929 410.317 534.545 406.28 534.545 406.28C534.545 406.28 546.019 408.34 549.159 403.524C552.297 398.709 553.813 370.82 553.813 370.82C553.813 370.82 532.94 385.723 523.215 406.613C513.489 427.503 512.516 453.336 512.516 453.336Z" fill="#FABB1E"/>
<path d="M546.592 377.97C537.809 386.595 528.969 395.788 523.797 407.122C522.025 411.006 520.516 415.035 519.187 419.14L519.18 419.16C518.915 419.984 518.644 420.806 518.393 421.636L518.351 421.772C515.793 430.236 513.987 438.988 512.421 447.537L512.505 447.565C513.405 443.214 514.397 438.82 515.505 434.439L515.631 434.415C517.405 433.67 519.192 433.202 521.108 433.024C521.232 433.014 521.224 432.795 521.097 432.802C519.247 432.891 517.436 433.215 515.679 433.791C516.689 429.84 517.788 425.902 519.024 422.018C523.055 421.031 527.26 420.5 531.404 420.4L531.409 420.334C527.232 420.139 523.305 420.499 519.237 421.366C519.452 420.699 519.676 420.038 519.899 419.374C522.62 418.754 525.353 418.234 528.137 417.978L528.132 417.89C525.407 417.962 522.72 418.25 520.065 418.87C521.203 415.511 522.429 412.196 523.791 408.968C524.917 406.299 526.256 403.764 527.732 401.318C529.963 400.811 532.127 400.331 534.413 400.126L534.408 400.015C532.333 399.88 530.171 400.035 528.161 400.631C529.259 398.858 530.412 397.123 531.647 395.44H531.648C536.329 394.403 541.072 393.442 545.861 394.34L545.893 394.195C541.335 392.996 536.809 393.688 532.275 394.586C532.769 393.927 533.276 393.276 533.787 392.63C536.66 391.74 539.517 391.311 542.532 391.256L542.54 391.16C539.789 390.898 537.045 391.163 534.387 391.883C538.256 387.075 542.531 382.56 546.756 378.094C546.952 377.886 546.8 377.766 546.592 377.97Z" fill="#17282F"/>
<path d="M546.357 396.98C544.984 396.835 543.587 396.68 542.207 396.836C542.04 396.855 542.055 397.127 542.223 397.132C543.596 397.172 544.969 397.069 546.344 397.144L546.357 396.98Z" fill="#17282F"/>
<path d="M531.335 424.035C529.141 424.01 526.949 424.599 524.9 425.327L524.932 425.419C527.056 424.912 529.205 424.707 531.351 424.354C531.525 424.324 531.517 424.038 531.335 424.035Z" fill="#17282F"/>
<path d="M526.832 414.688C525.943 414.643 524.979 414.799 524.101 414.936L524.109 415.099C524.997 415.115 525.972 415.138 526.845 414.97C527.001 414.942 526.995 414.698 526.832 414.688Z" fill="#17282F"/>
<path d="M451.327 401.313C458.044 403.648 464.707 406.651 470.728 410.451C477.144 414.5 482.453 419.66 486.888 425.804C495.972 438.392 503.097 452.801 507.612 467.647C510.141 475.969 511.768 484.479 512.313 493.164C512.333 493.48 511.864 493.523 511.824 493.21C509.903 478.204 505.632 463.552 499.183 449.868C492.853 436.444 484.86 422.155 472.639 413.265C465.984 408.425 458.505 405.257 451.049 401.905C450.659 401.731 450.937 401.177 451.327 401.313Z" fill="#FABB1E"/>
<path d="M502.74 458.069C502.74 458.069 495.919 451.628 487.293 446.837C478.668 442.045 471.655 438.892 469.515 434.704C467.376 430.516 474.036 425.08 474.036 425.08C474.036 425.08 465.228 429.4 461.573 426.228C457.92 423.057 450.247 400.837 450.247 400.837C450.247 400.837 470.584 408.072 483.283 422.732C495.981 437.389 502.74 458.069 502.74 458.069Z" fill="#FABB1E"/>
<path d="M501.681 453.486C491.509 434.395 477.939 417.124 459.34 405.724L459.332 405.736C464.228 408.855 468.739 412.455 472.944 416.388C469.18 416.284 465.347 416.883 462.009 418.695L462.065 418.809C465.784 417.552 469.359 416.725 473.316 416.908L473.444 416.861C474.104 417.487 474.755 418.123 475.399 418.765C473.443 418.848 471.463 419.125 469.557 419.54L469.572 419.621C471.635 419.223 473.649 419.083 475.743 419.112C479.152 422.536 482.327 426.2 485.336 430.004C483.977 429.805 482.553 429.92 481.251 430.3L481.281 430.455C482.763 430.267 484.171 430.292 485.641 430.395C486.197 431.103 486.761 431.807 487.305 432.525C483.123 432.275 479.027 432.676 474.963 433.725L474.981 433.821C479.172 432.997 483.399 432.736 487.659 432.997C488.177 433.684 488.669 434.393 489.177 435.089C486.681 435.013 484.263 435.325 481.831 435.931L481.859 436.076C484.361 435.508 486.905 435.363 489.464 435.484C491.652 438.5 493.748 441.58 495.763 444.699C494.696 444.48 493.576 444.6 492.537 444.895L492.555 444.981C493.752 444.843 494.869 444.996 496.044 445.147C497.856 447.967 499.607 450.815 501.284 453.68C501.427 453.92 501.817 453.74 501.681 453.486Z" fill="#17282F"/>
<path d="M485.86 437.651C483.871 437.48 481.851 437.792 479.951 438.373L479.968 438.46C481.923 438.101 483.861 437.964 485.843 437.859C485.973 437.852 485.999 437.663 485.86 437.651Z" fill="#17282F"/>
<path d="M468.12 414.384C467.221 414.281 466.283 414.4 465.395 414.541L465.427 414.704C466.321 414.608 467.205 414.641 468.103 414.615C468.248 414.611 468.272 414.401 468.12 414.384Z" fill="#17282F"/>
<path d="M528.972 521.203H483.065L489.612 473.255L491.283 460.961H520.753L522.427 473.255L528.972 521.203Z" fill="#33535F"/>
<path d="M522.427 473.255H489.612L491.283 460.961H520.753L522.427 473.255Z" fill="#17282F"/>
<path d="M524.967 467.108H487.069V456.696H524.967V467.108Z" fill="#33535F"/>
</g>
<defs>
<clipPath id="clip0_32_288">
<rect width="564.36" height="579.96" fill="white"/>
</clipPath>
</defs>
</svg>
