<svg width="614" height="567" viewBox="0 0 614 567" fill="none" xmlns="http://www.w3.org/2000/svg">
<g style="mix-blend-mode:luminosity">
<path d="M10.9068 447.043C9.66252 411.342 20.1751 373.689 47.2328 348.899C64.0865 333.458 86.739 323.375 99.3526 304.633C113.227 284.014 111.865 257.773 115.778 233.582C122.963 189.161 150.113 148.223 188.378 121.822C226.645 95.4208 275.434 83.5821 322.491 87.9834C338.073 89.4421 353.691 92.6821 367.505 99.6901C397.101 114.703 414.653 144.903 425.369 175.119C443.501 226.247 447.615 283.387 480.677 327.246C497.622 349.729 521.138 367.098 538.569 389.242C570.014 429.19 579.038 481.208 579.93 531.091C579.995 534.753 579.823 538.879 576.991 541.363C574.442 543.601 570.611 543.713 567.141 543.698C473.523 543.308 379.825 542.915 286.438 536.663C255.545 534.596 224.622 531.885 193.663 532.691C148.665 533.865 94.3969 550.061 50.0557 540.138C14.0885 532.089 11.9052 475.693 10.9068 447.043Z" fill="#E3CDBB"/>
<path d="M587.575 566.909H20.8823C12.0323 566.909 4.85785 559.734 4.85785 550.884C4.85785 542.034 12.0323 534.86 20.8823 534.86H587.575C596.425 534.86 603.599 542.034 603.599 550.884C603.599 559.734 596.425 566.909 587.575 566.909Z" fill="#DBBCA5"/>
<path d="M373.053 393.938C364.263 383.199 353.57 378.539 346.705 363.179C339.619 347.331 338.909 324.679 330.775 310.757C325.902 302.415 319.807 299.733 314.197 296.547C311.254 294.877 308.278 293.087 305.427 290.237C302.91 287.719 300.073 282.453 297.514 280.955C298.322 284.726 299.447 288.307 299.913 292.199C300.438 296.605 300.806 301.209 302.363 305.309C305.711 314.125 312.001 314.743 316.805 320.417C324.142 329.079 326.431 347.306 326.341 361.749C326.25 376.191 324.995 391.219 329.055 405.579C332.311 417.099 338.397 425.671 344.474 431.609C350.001 437.007 355.777 440.779 361.479 442.711C365.122 443.945 368.835 444.494 372.387 447.802C376.994 452.094 380.667 460.514 383.082 469.221C385.497 477.929 386.857 487.084 388.439 496.106C389.122 500.006 389.947 504.175 391.651 507.102C395.355 513.462 400.315 509.578 402.495 503.462C408.315 487.135 403.342 463.274 396.538 444.321C390.298 426.937 382.425 405.387 373.053 393.938Z" fill="#6B671F"/>
<path d="M296.874 281.144C298.619 287.056 301.118 291.077 303.961 294.157C308.231 298.776 313.194 301.274 317.521 305.072C321.849 308.87 325.638 313.925 327.738 323.841C330.541 337.112 330.851 354.841 333.853 371.286C335.355 379.512 337.533 387.424 341.063 394.316C344.59 401.205 349.485 407.077 356.386 411.15C369.783 419.058 379.993 432.365 387.398 446.828C394.805 461.286 399.406 476.888 401.638 489.313L402.951 489.078C400.695 476.532 396.065 460.826 388.585 446.22C381.103 431.617 370.771 418.1 357.065 410.002C350.414 406.074 345.694 400.429 342.25 393.708C337.083 383.63 334.823 371.136 333.349 358.645C331.87 346.152 331.171 333.672 329.043 323.566C327.619 316.804 325.373 312.138 322.687 308.614C318.653 303.326 313.701 300.642 309.234 297.145C304.762 293.64 300.707 289.373 298.153 280.766L296.874 281.144Z" fill="#A2A34A"/>
<path d="M387.173 362.957C378.598 352.046 367.999 347.174 361.439 331.682C354.671 315.695 354.41 293.034 346.554 278.953C341.847 270.517 335.809 267.713 330.262 264.417C327.353 262.687 324.413 260.841 321.619 257.934C319.153 255.367 316.419 250.046 313.891 248.497C314.625 252.283 315.678 255.886 316.066 259.787C316.505 264.202 316.781 268.811 318.257 272.942C321.429 281.822 327.705 282.566 332.395 288.334C339.559 297.139 341.486 315.409 341.109 329.847C340.731 344.285 339.178 359.285 342.953 373.723C345.981 385.305 351.894 393.995 357.851 400.053C363.27 405.561 368.971 409.446 374.633 411.49C378.25 412.797 381.953 413.418 385.438 416.797C389.959 421.181 393.465 429.671 395.706 438.425C397.947 447.178 399.126 456.357 400.529 465.41C401.134 469.322 401.877 473.509 403.522 476.467C407.099 482.899 412.135 479.115 414.437 473.044C420.578 456.837 416.079 432.881 409.654 413.795C403.759 396.291 396.317 374.59 387.173 362.957Z" fill="#7F7D2A"/>
<path d="M313.247 248.673C314.875 254.618 317.294 258.689 320.075 261.824C324.253 266.526 329.165 269.124 333.415 273.005C337.666 276.889 341.355 282.02 343.259 291.974C345.797 305.298 345.755 323.03 348.43 339.532C349.769 347.785 351.789 355.74 355.182 362.7C358.571 369.658 363.349 375.626 370.167 379.836C383.406 388.008 393.349 401.514 400.466 416.121C407.583 430.724 411.875 446.413 413.859 458.881L415.177 458.672C413.171 446.082 408.853 430.289 401.663 415.537C394.474 400.788 384.413 387.069 370.869 378.701C364.297 374.641 359.691 368.904 356.379 362.116C351.414 351.937 349.403 339.401 348.177 326.882C346.946 314.362 346.497 301.872 344.569 291.725C343.279 284.937 341.126 280.228 338.51 276.65C334.582 271.284 329.685 268.502 325.287 264.916C320.886 261.322 316.917 256.976 314.534 248.321L313.249 248.673H313.247Z" fill="#A2A34A"/>
<path d="M507.13 363.11C518.727 355.493 530.325 354.242 541.47 341.639C552.97 328.634 560.422 307.231 572.347 296.378C579.491 289.877 586.109 289.138 592.415 287.775C595.723 287.062 599.098 286.245 602.671 284.377C605.826 282.727 610.107 278.551 612.998 277.886C611.099 281.243 608.954 284.325 607.347 287.899C605.527 291.946 603.799 296.229 601.087 299.675C595.257 307.087 589.07 305.797 582.789 309.774C573.197 315.846 565.562 332.554 561.33 346.363C557.098 360.171 553.801 374.887 545.633 387.377C539.079 397.395 530.71 403.755 523.135 407.603C516.247 411.103 509.607 412.974 503.589 413.113C502.815 413.13 502.046 413.121 501.277 413.111C498.223 413.074 495.155 413.035 491.657 414.709C485.977 417.427 479.954 424.363 475.046 431.95C470.138 439.537 466.103 447.865 461.895 456.002C460.077 459.519 458.042 463.251 455.541 465.534C450.105 470.495 446.533 465.307 446.282 458.818C445.611 441.499 457.491 420.217 469.653 404.165C480.806 389.442 494.762 371.234 507.13 363.11Z" fill="#6B671F"/>
<path d="M612.445 277.516C609.107 282.485 605.701 285.404 602.233 287.401C597.038 290.397 591.629 291.293 586.157 293.697C580.686 296.098 575.233 300.077 570.169 309.12C563.435 321.126 557.85 337.93 550.13 352.597C546.273 359.93 541.887 366.721 536.591 372.102C531.294 377.486 525.103 381.462 517.582 383.221C502.081 386.849 488.179 396.657 476.674 408.356C465.167 420.057 456.053 433.658 450.149 444.957L451.331 445.574C457.177 434.384 466.233 420.872 477.625 409.29C489.015 397.704 502.737 388.058 517.886 384.52C525.689 382.697 532.115 378.557 537.542 373.037C545.685 364.756 551.618 353.377 556.787 341.85C561.953 330.325 566.353 318.64 571.331 309.772C574.639 303.881 578.033 300.281 581.475 297.841C586.635 294.182 591.983 293.124 597.442 291.078C602.894 289.038 608.407 285.942 613.551 278.258L612.445 277.516Z" fill="#A2A34A"/>
<path d="M506.658 315.378C515.233 304.467 525.831 299.595 532.391 284.103C539.161 268.117 539.421 245.455 547.277 231.374C551.983 222.938 558.023 220.134 563.569 216.838C566.478 215.109 569.418 213.262 572.213 210.355C574.679 207.789 577.411 202.467 579.939 200.918C579.206 204.705 578.153 208.307 577.765 212.209C577.326 216.623 577.05 221.233 575.574 225.363C572.402 234.243 566.126 234.987 561.435 240.755C554.271 249.561 552.345 267.83 552.722 282.269C553.099 296.706 554.653 311.706 550.878 326.145C547.851 337.726 541.937 346.417 535.979 352.474C530.561 357.982 524.859 361.867 519.198 363.911C515.581 365.218 511.878 365.839 508.393 369.218C503.871 373.602 500.366 382.093 498.125 390.846C495.883 399.599 494.705 408.778 493.303 417.831C492.697 421.743 491.955 425.929 490.309 428.889C486.731 435.321 481.697 431.537 479.395 425.465C473.253 409.258 477.751 385.302 484.177 366.217C490.071 348.713 497.515 327.011 506.658 315.378Z" fill="#7F7D2A"/>
<path d="M579.297 200.742C577.713 206.514 575.41 210.365 572.758 213.361C568.786 217.853 563.942 220.422 559.518 224.441C555.094 228.458 551.189 233.964 549.262 244.146C546.695 257.672 546.742 275.38 544.085 291.74C542.759 299.918 540.759 307.75 537.451 314.537C534.139 321.325 529.534 327.062 522.962 331.122C509.418 339.49 499.357 353.209 492.167 367.958C484.978 382.71 480.661 398.504 478.654 411.093L479.971 411.302C481.955 398.834 486.247 383.145 493.365 368.542C500.482 353.936 510.426 340.429 523.663 332.257C530.482 328.048 535.259 322.08 538.649 315.121C543.735 304.68 545.745 292.006 546.981 279.434C548.214 266.864 548.67 254.386 550.573 244.396C551.835 237.76 553.909 233.266 556.397 229.858C560.125 224.75 564.859 222.045 569.385 218.372C573.905 214.705 578.149 210.016 580.583 201.094L579.297 200.742Z" fill="#A2A34A"/>
<path d="M553.659 103.706L529.023 463.704H369.767L345.131 103.706H553.659Z" fill="#AF4700"/>
<path d="M531.797 423.174H486.491C488.899 423.096 491.103 422.213 492.845 420.786C493.117 420.565 493.377 420.33 493.626 420.084C493.834 419.874 494.033 419.656 494.223 419.43C495.783 417.586 496.725 415.201 496.725 412.596C496.725 406.752 491.986 402.013 486.142 402.013H449.389V330.426C449.389 330.426 508.391 287.61 508.391 233.941L483.473 220.305L479.617 201.349L449.389 194.956V114.432H552.925L531.797 423.174Z" fill="#A13500"/>
<path d="M335.53 114.432H563.261V91.0863H335.53V114.432Z" fill="#CC6017"/>
<path d="M563.261 114.432H463.95V91.0863H563.261V114.432Z" fill="#AF4B08"/>
<path d="M356.307 465.501H542.482V442.154H356.307V465.501Z" fill="#CC6017"/>
<path d="M457.27 465.501H542.482V442.154H457.27V465.501Z" fill="#AF4B08"/>
<path d="M508.391 233.941C508.391 287.61 449.389 330.426 449.389 330.426C449.389 330.426 390.387 287.61 390.387 233.941L415.306 220.305L419.162 201.349L449.389 194.956L479.617 201.349L483.473 220.305L508.391 233.941Z" fill="#EA9B1C"/>
<path d="M495.583 238.304C495.583 281.368 449.389 315.722 449.389 315.722C449.389 315.722 403.195 281.368 403.195 238.304L422.705 227.364L425.723 212.152L449.389 207.022L473.055 212.152L476.074 227.364L495.583 238.304Z" fill="#CC6017"/>
<path d="M475.265 252.837C475.265 267.128 463.679 278.713 449.389 278.713C435.099 278.713 423.514 267.128 423.514 252.837C423.514 238.548 435.099 226.962 449.389 226.962C463.679 226.962 475.265 238.548 475.265 252.837Z" fill="#F4AD47"/>
<path d="M469.561 252.837C469.561 263.978 460.529 273.009 449.389 273.009C438.249 273.009 429.218 263.978 429.218 252.837C429.218 241.697 438.249 232.666 449.389 232.666C460.529 232.666 469.561 241.697 469.561 252.837Z" fill="#EA9B1C"/>
<path d="M449.389 330.426V315.722C449.49 315.648 495.583 281.32 495.583 238.304L476.074 227.364L473.055 212.152L449.389 207.022V194.956L479.617 201.349L483.473 220.305L508.391 233.941C508.391 287.61 449.389 330.426 449.389 330.426Z" fill="#D77312"/>
<path d="M449.389 315.722V278.713C463.678 278.711 475.265 267.128 475.265 252.837C475.265 238.548 463.679 226.962 449.389 226.962V207.022L473.055 212.152L476.074 227.364L495.583 238.304C495.583 281.32 449.49 315.648 449.389 315.722Z" fill="#BB470E"/>
<path d="M449.389 278.713V273.009C460.529 273.008 469.561 263.977 469.561 252.837C469.561 241.697 460.529 232.666 449.389 232.666V226.962C463.679 226.962 475.265 238.548 475.265 252.837C475.265 267.128 463.678 278.712 449.389 278.713Z" fill="#E0812C"/>
<path d="M449.389 273.009V232.666C460.529 232.666 469.561 241.697 469.561 252.837C469.561 263.977 460.529 273.007 449.389 273.009Z" fill="#D77312"/>
<path d="M159.547 531.23V541.185C159.547 548.298 134.431 554.057 103.46 554.057C72.4704 554.057 47.3541 548.298 47.3541 541.185V531.23H67.8932C77.5625 529.418 89.9584 528.311 103.46 528.311C116.962 528.311 129.339 529.418 139.027 531.23H159.547Z" fill="#CC6017"/>
<mask id="mask0_32_3" style="mask-type:luminance" maskUnits="userSpaceOnUse" x="47" y="528" width="113" height="27">
<path d="M159.547 531.23V541.185C159.547 548.298 134.431 554.057 103.46 554.057C72.4704 554.057 47.3541 548.298 47.3541 541.185V531.23H67.8932C77.5625 529.418 89.9584 528.311 103.46 528.311C116.962 528.311 129.339 529.418 139.027 531.23H159.547Z" fill="white"/>
</mask>
<g mask="url(#mask0_32_3)">
<path d="M51.2751 559.833H49.5099V526.554H51.2751V559.833Z" fill="#EA843F"/>
<path d="M61.8875 559.833H60.1229V526.554H61.8875V559.833Z" fill="#EA843F"/>
<path d="M70.7355 559.833H72.5001V526.554H70.7355V559.833Z" fill="#EA843F"/>
<path d="M81.348 559.833H83.1131V526.554H81.348V559.833Z" fill="#EA843F"/>
<path d="M91.9609 559.833H93.7255V526.554H91.9609V559.833Z" fill="#EA843F"/>
<path d="M102.573 559.833H104.338V526.554H102.573V559.833Z" fill="#EA843F"/>
<path d="M113.186 559.833H114.952V526.554H113.186V559.833Z" fill="#EA843F"/>
<path d="M123.799 559.833H125.563V526.554H123.799V559.833Z" fill="#EA843F"/>
<path d="M134.411 559.833H136.176V526.554H134.411V559.833Z" fill="#EA843F"/>
<path d="M146.789 559.833H145.025V526.554H146.789V559.833Z" fill="#EA843F"/>
<path d="M157.402 559.833H155.637V526.554H157.402V559.833Z" fill="#EA843F"/>
</g>
<path d="M103.456 544.105C72.4724 544.105 47.3552 538.341 47.3552 531.232C47.3552 524.123 72.4724 518.36 103.456 518.36C134.439 518.36 159.557 524.123 159.557 531.232C159.557 538.341 134.439 544.105 103.456 544.105Z" fill="#EA9B1C"/>
<path d="M103.456 541.182C79.5052 541.182 60.0896 536.727 60.0896 531.232C60.0896 525.737 79.5052 521.282 103.456 521.282C127.406 521.282 146.822 525.737 146.822 531.232C146.822 536.727 127.406 541.182 103.456 541.182Z" fill="#CC6017"/>
<path d="M165.634 517.896V527.851C165.634 534.965 140.518 540.725 109.546 540.725C78.5563 540.725 53.4401 534.965 53.4401 527.851V517.896H73.9797C83.6484 516.084 96.0443 514.979 109.546 514.979C123.049 514.979 135.425 516.084 145.113 517.896H165.634Z" fill="#CC6017"/>
<mask id="mask1_32_3" style="mask-type:luminance" maskUnits="userSpaceOnUse" x="53" y="514" width="113" height="27">
<path d="M165.634 517.896V527.851C165.634 534.965 140.518 540.725 109.546 540.725C78.5563 540.725 53.4401 534.965 53.4401 527.851V517.896H73.9797C83.6484 516.084 96.0443 514.979 109.546 514.979C123.049 514.979 135.425 516.084 145.113 517.896H165.634Z" fill="white"/>
</mask>
<g mask="url(#mask1_32_3)">
<path d="M57.3609 546.5H55.5964V513.222H57.3609V546.5Z" fill="#EA843F"/>
<path d="M67.9735 546.5H66.2089V513.222H67.9735V546.5Z" fill="#EA843F"/>
<path d="M76.8213 546.5H78.5859V513.222H76.8213V546.5Z" fill="#EA843F"/>
<path d="M87.4338 546.5H89.1989V513.222H87.4338V546.5Z" fill="#EA843F"/>
<path d="M98.0469 546.5H99.8115V513.222H98.0469V546.5Z" fill="#EA843F"/>
<path d="M108.659 546.5H110.424V513.222H108.659V546.5Z" fill="#EA843F"/>
<path d="M119.273 546.5H121.037V513.222H119.273V546.5Z" fill="#EA843F"/>
<path d="M129.885 546.5H131.65V513.222H129.885V546.5Z" fill="#EA843F"/>
<path d="M140.498 546.5H142.262V513.222H140.498V546.5Z" fill="#EA843F"/>
<path d="M152.875 546.5H151.11V513.222H152.875V546.5Z" fill="#EA843F"/>
<path d="M163.487 546.5H161.723V513.222H163.487V546.5Z" fill="#EA843F"/>
</g>
<path d="M109.542 530.772C78.5584 530.772 53.4417 525.009 53.4417 517.9C53.4417 510.79 78.5584 505.028 109.542 505.028C140.526 505.028 165.642 510.79 165.642 517.9C165.642 525.009 140.526 530.772 109.542 530.772Z" fill="#EA9B1C"/>
<path d="M109.542 527.85C85.5912 527.85 66.1756 523.395 66.1756 517.899C66.1756 512.403 85.5912 507.949 109.542 507.949C133.493 507.949 152.909 512.403 152.909 517.899C152.909 523.395 133.493 527.85 109.542 527.85Z" fill="#CC6017"/>
<path d="M99.6666 525.944C86.5448 525.098 76.4234 522.608 73.7937 519.503C77.8302 521.707 84.4646 523.599 92.8182 524.978C93.3989 525.074 93.986 525.167 94.5828 525.258C96.2198 525.506 97.9156 525.735 99.6666 525.944Z" fill="#B33B0A"/>
<path d="M181.63 504.565V514.52C181.63 521.633 156.514 527.392 125.543 527.392C94.5532 527.392 69.4371 521.633 69.4371 514.52V504.565H89.9765C99.6453 502.753 112.041 501.646 125.543 501.646C139.045 501.646 151.422 502.753 161.11 504.565H181.63Z" fill="#CC6017"/>
<mask id="mask2_32_3" style="mask-type:luminance" maskUnits="userSpaceOnUse" x="69" y="501" width="113" height="27">
<path d="M181.63 504.565V514.52C181.63 521.633 156.514 527.392 125.543 527.392C94.5532 527.392 69.4371 521.633 69.4371 514.52V504.565H89.9765C99.6453 502.753 112.041 501.646 125.543 501.646C139.045 501.646 151.422 502.753 161.11 504.565H181.63Z" fill="white"/>
</mask>
<g mask="url(#mask2_32_3)">
<path d="M73.3579 533.167H71.5927V499.89H73.3579V533.167Z" fill="#EA843F"/>
<path d="M83.9704 533.167H82.2057V499.89H83.9704V533.167Z" fill="#EA843F"/>
<path d="M92.8182 533.167H94.5828V499.89H92.8182V533.167Z" fill="#EA843F"/>
<path d="M103.431 533.167H105.195V499.89H103.431V533.167Z" fill="#EA843F"/>
<path d="M114.043 533.167H115.809V499.89H114.043V533.167Z" fill="#EA843F"/>
<path d="M124.657 533.167H126.421V499.89H124.657V533.167Z" fill="#EA843F"/>
<path d="M135.269 533.167H137.034V499.89H135.269V533.167Z" fill="#EA843F"/>
<path d="M145.882 533.167H147.646V499.89H145.882V533.167Z" fill="#EA843F"/>
<path d="M156.494 533.167H158.26V499.89H156.494V533.167Z" fill="#EA843F"/>
<path d="M168.871 533.167H167.107V499.89H168.871V533.167Z" fill="#EA843F"/>
<path d="M179.485 533.167H177.719V499.89H179.485V533.167Z" fill="#EA843F"/>
</g>
<path d="M125.539 517.439C94.5552 517.439 69.438 511.677 69.438 504.568C69.438 497.458 94.5552 491.694 125.539 491.694C156.522 491.694 181.639 497.458 181.639 504.568C181.639 511.677 156.522 517.439 125.539 517.439Z" fill="#EA9B1C"/>
<path d="M125.539 514.518C101.588 514.518 82.1724 510.062 82.1724 504.568C82.1724 499.072 101.588 494.617 125.539 494.617C149.49 494.617 168.905 499.072 168.905 504.568C168.905 510.062 149.49 514.518 125.539 514.518Z" fill="#CC6017"/>
<path d="M125.539 512.923C120.19 512.923 115.109 512.658 110.534 512.184C111.134 512.099 111.725 512.013 112.309 511.925C112.905 511.834 113.494 511.739 114.074 511.645C119.766 510.705 124.658 509.528 128.475 508.174C129.689 508.784 133.715 510.694 139.487 512.289C135.191 512.697 130.479 512.923 125.539 512.923Z" fill="#B33B0A"/>
<path d="M137.445 491.231V501.186C137.445 508.301 112.329 514.059 81.3573 514.059C50.3677 514.059 25.2516 508.301 25.2516 501.186V491.231H45.7907C55.4599 489.419 67.8557 488.314 81.3573 488.314C94.8599 488.314 107.237 489.419 116.925 491.231H137.445Z" fill="#CC6017"/>
<mask id="mask3_32_3" style="mask-type:luminance" maskUnits="userSpaceOnUse" x="25" y="488" width="113" height="27">
<path d="M137.445 491.231V501.186C137.445 508.301 112.329 514.059 81.3573 514.059C50.3677 514.059 25.2516 508.301 25.2516 501.186V491.231H45.7907C55.4599 489.419 67.8557 488.314 81.3573 488.314C94.8599 488.314 107.237 489.419 116.925 491.231H137.445Z" fill="white"/>
</mask>
<g mask="url(#mask3_32_3)">
<path d="M29.1719 519.835H27.4073V486.556H29.1719V519.835Z" fill="#EA843F"/>
<path d="M39.7849 519.835H38.0204V486.556H39.7849V519.835Z" fill="#EA843F"/>
<path d="M48.6328 519.835H50.3974V486.556H48.6328V519.835Z" fill="#EA843F"/>
<path d="M59.2454 519.835H61.0099V486.556H59.2454V519.835Z" fill="#EA843F"/>
<path d="M69.8579 519.835H71.623V486.556H69.8579V519.835Z" fill="#EA843F"/>
<path d="M80.4708 519.835H82.2354V486.556H80.4708V519.835Z" fill="#EA843F"/>
<path d="M91.0834 519.835H92.8485V486.556H91.0834V519.835Z" fill="#EA843F"/>
<path d="M101.696 519.835H103.461V486.556H101.696V519.835Z" fill="#EA843F"/>
<path d="M112.309 519.835H114.074V486.556H112.309V519.835Z" fill="#EA843F"/>
<path d="M124.686 519.835H122.922V486.556H124.686V519.835Z" fill="#EA843F"/>
<path d="M135.299 519.835H133.534V486.556H135.299V519.835Z" fill="#EA843F"/>
</g>
<path d="M81.3532 504.107C50.3699 504.107 25.2527 498.343 25.2527 491.234C25.2527 484.125 50.3699 478.362 81.3532 478.362C112.337 478.362 137.454 484.125 137.454 491.234C137.454 498.343 112.337 504.107 81.3532 504.107Z" fill="#EA9B1C"/>
<path d="M81.3532 501.185C57.4027 501.185 37.9871 496.73 37.9871 491.234C37.9871 485.738 57.4027 481.284 81.3532 481.284C105.303 481.284 124.719 485.738 124.719 491.234C124.719 496.73 105.303 501.185 81.3532 501.185Z" fill="#CC6017"/>
<path d="M81.3532 499.59C61.2401 499.59 44.9349 495.849 44.9349 491.234C44.9349 486.62 61.2401 482.878 81.3532 482.878C101.467 482.878 117.771 486.62 117.771 491.234C117.771 495.849 101.467 499.59 81.3532 499.59Z" fill="#B33B0A"/>
<path d="M95.2563 298.328L88.1041 474.694H100.284V301.74L95.2563 298.328Z" fill="#3575A0"/>
<path d="M142.058 398.946L171.015 302.012H169.155L198.113 398.946L199.39 398.565L170.69 302.488L170.05 302.678V303.345H170.121V302.678L169.482 302.488L140.781 398.564L142.058 398.946Z" fill="black"/>
<path d="M141.419 398.755C141.419 400.967 148.895 418.795 170.05 418.795C191.206 418.795 198.682 400.967 198.682 398.755C198.682 396.542 180.905 394.747 170.05 394.747C159.197 394.747 141.419 396.542 141.419 398.755Z" fill="#215681"/>
<path d="M141.419 398.756C141.419 400.968 159.197 402.762 170.05 402.762C180.905 402.762 198.682 400.968 198.682 398.756C198.682 396.542 180.905 394.748 170.05 394.748C159.197 394.748 141.419 396.542 141.419 398.756Z" fill="#122026"/>
<path d="M196.795 398.755C196.795 399.797 197.639 400.641 198.682 400.641C199.723 400.641 200.567 399.797 200.567 398.755C200.567 397.714 199.723 396.869 198.682 396.869C197.639 396.869 196.795 397.714 196.795 398.755Z" fill="#EA9B1C"/>
<path d="M139.534 398.755C139.534 399.797 140.378 400.641 141.419 400.641C142.462 400.641 143.306 399.797 143.306 398.755C143.306 397.714 142.462 396.869 141.419 396.869C140.378 396.869 139.534 397.714 139.534 398.755Z" fill="#EA9B1C"/>
<path d="M105.311 298.328L112.463 474.694H100.284V301.74L105.311 298.328Z" fill="#215681"/>
<path d="M167.535 300.694V306.264H33.0365V300.694L95.9401 280.313H104.631L167.535 300.694Z" fill="#EA9B1C"/>
<path d="M140.177 306.265H105.633V306.263H140.177C140.175 306.269 140.177 306.259 140.177 306.265Z" fill="#DCB8A0"/>
<path d="M33.0406 306.265H94.9344V306.263H33.0406V306.265Z" fill="#F0D7BF"/>
<path d="M94.9344 306.265H100.284V306.263H94.9344V306.265Z" fill="#336989"/>
<path d="M100.284 306.265H105.633V306.263H100.284V306.265Z" fill="#204D6E"/>
<path d="M33.0406 300.693V300.692L43.1172 297.428L33.0406 300.693Z" fill="#F0D7BF"/>
<path d="M140.177 306.264H33.0406V300.693L43.1172 297.428L45.227 296.745H140.937C140.685 299.932 140.43 303.116 140.177 306.264Z" fill="#E28B18"/>
<path d="M85.6771 288.072C85.6771 296.138 92.2167 302.678 100.284 302.678C108.351 302.678 114.89 296.138 114.89 288.072C114.89 280.005 108.351 273.465 100.284 273.465C92.2167 273.465 85.6771 280.005 85.6771 288.072Z" fill="#D3492A"/>
<path d="M93.7927 288.071C93.7927 291.655 96.6989 294.562 100.284 294.562C103.869 294.562 106.775 291.655 106.775 288.071C106.775 284.486 103.869 281.581 100.284 281.581C96.6989 281.581 93.7927 284.486 93.7927 288.071Z" fill="#EA9B1C"/>
<path d="M160.259 302.678C160.259 308.086 164.643 312.47 170.051 312.47C175.458 312.47 179.842 308.086 179.842 302.678C179.842 297.27 175.458 292.886 170.051 292.886C164.643 292.886 160.259 297.27 160.259 302.678Z" fill="#D3492A"/>
<path d="M165.699 302.678C165.699 305.081 167.647 307.029 170.051 307.029C172.454 307.029 174.402 305.081 174.402 302.678C174.402 300.275 172.454 298.327 170.051 298.327C167.647 298.327 165.699 300.275 165.699 302.678Z" fill="#EA9B1C"/>
<path d="M133.909 482.798H66.6589V480.65C66.6589 476.725 69.8412 473.542 73.7667 473.542H126.801C130.726 473.542 133.909 476.725 133.909 480.65V482.798Z" fill="#3575A0"/>
<path d="M133.907 480.651V482.798H66.6537V480.651C66.6537 480.198 66.6937 479.745 66.7871 479.318H133.774C133.867 479.745 133.907 480.198 133.907 480.651Z" fill="#215681"/>
<path d="M143.895 494.297H56.6745V489.4C56.6745 485.474 59.8568 482.292 63.7822 482.292H136.787C140.713 482.292 143.895 485.474 143.895 489.4V494.297Z" fill="#3575A0"/>
<path d="M143.893 491.511V494.295H56.6677V491.511C56.6677 490.923 56.7199 490.335 56.8401 489.782H143.719C143.841 490.335 143.893 490.923 143.893 491.511Z" fill="#215681"/>
<path d="M117.681 473.542H82.8907V403.09C82.8907 399.654 85.6756 396.869 89.1109 396.869H111.461C114.895 396.869 117.681 399.654 117.681 403.09V473.542Z" fill="#EA9B1C"/>
<path d="M103.414 473.544H117.681V473.542H103.414V473.544Z" fill="#305764"/>
<path d="M117.199 400.685C116.259 398.443 114.043 396.869 111.461 396.869H109.307V396.865H111.467C114.043 396.865 116.259 398.441 117.199 400.685Z" fill="#D09875"/>
<path d="M100.284 396.869H97.4339C97.3563 396.866 97.2781 396.865 97.2 396.865H100.284V396.869Z" fill="#305764"/>
<path d="M100.284 396.869H109.307V396.865H100.284V396.869Z" fill="#1E4051"/>
<path d="M117.681 466.126H103.414V403.091C103.414 399.73 100.753 396.993 97.4338 396.869H100.284H109.307H111.461C114.043 396.869 116.259 398.443 117.199 400.685C117.509 401.425 117.681 402.238 117.681 403.091V466.126Z" fill="#D77312"/>
<path d="M82.8907 473.542H103.414V466.126H82.8907V473.542Z" fill="#D77312"/>
<path d="M103.414 473.542H117.681V466.126H103.414V473.542Z" fill="#C5550B"/>
<path d="M59.7866 398.564L31.086 302.488L30.4475 302.678V303.345H30.5172V302.678L29.8781 302.488L1.17761 398.564L2.45521 398.946L31.412 302.012H30.4475H29.5521L58.5089 398.946L59.7866 398.565" fill="black"/>
<path d="M59.148 398.755C59.148 400.967 51.6719 418.795 30.5172 418.795C9.36199 418.795 1.88599 400.967 1.88599 398.755C1.88599 396.542 19.6625 394.747 30.5172 394.747C41.3713 394.747 59.148 396.542 59.148 398.755Z" fill="#215681"/>
<path d="M59.148 398.756C59.148 400.968 41.3713 402.762 30.5172 402.762C19.6625 402.762 1.88599 400.968 1.88599 398.756C1.88599 396.542 19.6625 394.748 30.5172 394.748C41.3713 394.748 59.148 396.542 59.148 398.756Z" fill="#122026"/>
<path d="M3.77187 398.755C3.77187 399.797 2.9276 400.641 1.886 400.641C0.844265 400.641 0 399.797 0 398.755C0 397.714 0.844265 396.869 1.886 396.869C2.9276 396.869 3.77187 397.714 3.77187 398.755Z" fill="#EA9B1C"/>
<path d="M61.0339 398.755C61.0339 399.797 60.1896 400.641 59.148 400.641C58.1063 400.641 57.262 399.797 57.262 398.755C57.262 397.714 58.1063 396.869 59.148 396.869C60.1896 396.869 61.0339 397.714 61.0339 398.755Z" fill="#EA9B1C"/>
<path d="M40.3089 302.678C40.3089 308.086 35.925 312.47 30.5172 312.47C25.1093 312.47 20.725 308.086 20.725 302.678C20.725 297.27 25.1093 292.886 30.5172 292.886C35.925 292.886 40.3089 297.27 40.3089 302.678Z" fill="#D3492A"/>
<path d="M34.8683 302.678C34.8683 305.081 32.9204 307.029 30.5172 307.029C28.1141 307.029 26.1656 305.081 26.1656 302.678C26.1656 300.275 28.1141 298.327 30.5172 298.327C32.9204 298.327 34.8683 300.275 34.8683 302.678Z" fill="#EA9B1C"/>
<path d="M555.667 557.979H338.822C330.342 557.979 323.467 551.105 323.467 542.623V527.097C323.467 518.617 330.342 511.742 338.822 511.742H555.667C557.221 511.742 558.481 513.002 558.481 514.555V555.165C558.481 556.72 557.221 557.979 555.667 557.979Z" fill="#EA9B1C"/>
<path d="M369.606 511.742H356.455C356.533 511.74 356.611 511.739 356.69 511.739H369.839C369.762 511.739 369.683 511.74 369.606 511.742Z" fill="#F1E6DD"/>
<path d="M354.202 534.86H341.035V527.585C341.035 518.97 347.895 511.969 356.455 511.742H369.606C361.062 511.969 354.202 518.97 354.202 527.585V534.86Z" fill="#F5CD2A"/>
<path d="M384.518 534.86H371.351V527.585C371.351 518.97 378.213 511.969 386.771 511.742H399.922C391.379 511.969 384.518 518.97 384.518 527.585V534.86Z" fill="#F5CD2A"/>
<path d="M414.835 534.86H401.669V527.585C401.669 518.97 408.529 511.969 417.089 511.742H430.239C421.695 511.969 414.835 518.97 414.835 527.585V534.86Z" fill="#F5CD2A"/>
<path d="M503.25 557.983H339.314C339.189 557.983 339.065 557.982 338.941 557.979H356.509C356.634 557.982 356.758 557.983 356.883 557.983H370.033C369.909 557.983 369.783 557.982 369.659 557.979H386.826C386.95 557.982 387.075 557.983 387.199 557.983H400.35C400.225 557.983 400.101 557.982 399.977 557.979H417.142C417.267 557.982 417.391 557.983 417.517 557.983H430.666C430.542 557.983 430.417 557.982 430.293 557.979H453.515H503.25V557.983ZM323.467 542.239C323.467 542.205 323.466 542.17 323.466 542.135V534.86L323.467 542.239Z" fill="#D0947B"/>
<path d="M453.515 557.979H430.293C421.725 557.781 414.835 550.767 414.835 542.135V534.86H440.974V545.438C440.974 552.363 446.589 557.979 453.515 557.979ZM417.142 557.979H399.977C391.407 557.781 384.518 550.767 384.518 542.135V534.86H401.669V542.135C401.669 550.767 408.558 557.781 417.142 557.979ZM386.826 557.979H369.659C361.091 557.781 354.202 550.767 354.202 542.135V534.86H371.351V542.135C371.351 550.767 378.242 557.781 386.826 557.979ZM356.509 557.979H338.941C330.39 557.781 323.522 550.823 323.467 542.239V534.86H341.035V542.135C341.035 550.767 347.925 557.781 356.509 557.979Z" fill="#DE7915"/>
<path d="M370.033 557.983H356.883C356.758 557.983 356.634 557.982 356.509 557.979H369.659C369.783 557.982 369.909 557.983 370.033 557.983Z" fill="#E1AE9D"/>
<path d="M369.659 557.979H356.509C347.925 557.781 341.035 550.767 341.035 542.135V534.86H354.202V542.135C354.202 550.767 361.091 557.781 369.659 557.979Z" fill="#E8A11F"/>
<path d="M400.35 557.983H387.199C387.075 557.983 386.95 557.982 386.826 557.979H399.977C400.101 557.982 400.225 557.983 400.35 557.983Z" fill="#E1AE9D"/>
<path d="M399.977 557.979H386.826C378.242 557.781 371.351 550.767 371.351 542.135V534.86H384.518V542.135C384.518 550.767 391.407 557.781 399.977 557.979Z" fill="#E8A11F"/>
<path d="M430.666 557.983H417.517C417.391 557.983 417.267 557.982 417.142 557.979H430.293C430.417 557.982 430.542 557.983 430.666 557.983Z" fill="#E1AE9D"/>
<path d="M430.293 557.979H417.142C408.558 557.781 401.669 550.767 401.669 542.135V534.86H414.835V542.135C414.835 550.767 421.725 557.781 430.293 557.979Z" fill="#E8A11F"/>
<path d="M558.481 557.979H453.515C446.589 557.979 440.974 552.363 440.974 545.438V524.284C440.974 517.357 446.589 511.742 453.515 511.742H558.481V557.979Z" fill="#F2A940"/>
<path d="M456.815 549.558C452.723 549.558 449.395 546.229 449.395 542.137V527.584C449.395 523.491 452.723 520.162 456.815 520.162H558.481V549.558H456.815Z" fill="#F8EFE0"/>
<path d="M466.243 530.896H558.481V526.458H466.243V530.896Z" fill="#EEDDC9"/>
<path d="M466.243 543.262H558.481V538.822H466.243V543.262Z" fill="#EEDDC9"/>
<path d="M326.281 511.738H543.125C551.606 511.738 558.481 504.863 558.481 496.382V480.855C558.481 472.375 551.606 465.501 543.125 465.501H326.281C324.726 465.501 323.466 466.761 323.466 468.314V508.923C323.466 510.478 324.726 511.738 326.281 511.738Z" fill="#D3492A"/>
<path d="M525.491 465.501H517.865C517.982 465.501 518.098 465.5 518.214 465.496H525.063C525.207 465.496 525.35 465.497 525.491 465.501Z" fill="#D7710C"/>
<path d="M540.911 488.618H527.745V481.344C527.745 472.729 520.885 465.728 512.341 465.501H517.865H525.491C534.051 465.728 540.911 472.729 540.911 481.344V488.618Z" fill="#E96E3F"/>
<path d="M510.595 488.618H497.429V481.344C497.429 472.729 490.567 465.728 482.025 465.501H495.175C503.734 465.728 510.595 472.729 510.595 481.344V488.618Z" fill="#E96E3F"/>
<path d="M480.279 488.618H467.111V481.344C467.111 472.729 460.251 465.728 451.709 465.501H464.859C473.418 465.728 480.279 472.729 480.279 481.344V488.618Z" fill="#E96E3F"/>
<path d="M542.633 511.742H525.063C525.191 511.742 525.318 511.741 525.445 511.739H543.014C542.887 511.741 542.759 511.742 542.633 511.742Z" fill="#C1AD8C"/>
<path d="M511.914 511.742H494.747C494.874 511.742 495.002 511.741 495.129 511.739H512.294C512.169 511.741 512.041 511.742 511.914 511.742Z" fill="#C1AD8C"/>
<path d="M481.598 511.742H464.431C464.558 511.742 464.686 511.741 464.813 511.739H481.978C481.851 511.741 481.725 511.742 481.598 511.742Z" fill="#C1AD8C"/>
<path d="M451.281 511.742H430.239C430.317 511.74 430.395 511.739 430.473 511.739H451.661C451.535 511.741 451.407 511.742 451.281 511.742Z" fill="#C1AD8C"/>
<path d="M417.089 511.742H399.922C400.001 511.74 400.078 511.739 400.157 511.739H417.323C417.245 511.739 417.166 511.74 417.089 511.742Z" fill="#C1AD8C"/>
<path d="M386.771 511.742H378.697V511.739H387.006C386.927 511.739 386.85 511.74 386.771 511.742Z" fill="#C1AD8C"/>
<path d="M399.922 511.742H386.771C386.85 511.74 386.927 511.739 387.006 511.739H400.157C400.078 511.739 400.001 511.74 399.922 511.742Z" fill="#CCC3A5"/>
<path d="M430.239 511.742H417.089C417.166 511.74 417.245 511.739 417.323 511.739H428.433H430.473C430.395 511.739 430.317 511.74 430.239 511.742Z" fill="#CCC3A5"/>
<path d="M543.014 511.738H525.445C534.026 511.535 540.911 504.525 540.911 495.894V488.618H558.481V495.998C558.425 504.58 551.561 511.537 543.014 511.738ZM512.294 511.738H495.129C503.71 511.535 510.595 504.525 510.595 495.894V488.618H527.745V495.894C527.745 504.525 520.859 511.535 512.294 511.738ZM481.978 511.738H464.813C473.393 511.535 480.279 504.525 480.279 495.894V488.618H497.429V495.894C497.429 504.525 490.543 511.535 481.978 511.738ZM451.661 511.738H430.473H428.433C435.358 511.738 440.974 506.122 440.974 499.197V488.618H467.111V495.894C467.111 504.525 460.226 511.535 451.661 511.738Z" fill="#B33E1F"/>
<path d="M525.063 511.742H511.914C512.041 511.742 512.169 511.741 512.294 511.739H525.445C525.318 511.741 525.191 511.742 525.063 511.742Z" fill="#CCC3A5"/>
<path d="M525.445 511.738H512.294C520.859 511.535 527.745 504.525 527.745 495.894V488.618H540.911V495.894C540.911 504.525 534.026 511.535 525.445 511.738Z" fill="#C65D2F"/>
<path d="M494.747 511.742H481.598C481.725 511.742 481.851 511.741 481.978 511.739H495.129C495.002 511.741 494.874 511.742 494.747 511.742Z" fill="#CCC3A5"/>
<path d="M495.129 511.738H481.978C490.543 511.535 497.429 504.525 497.429 495.894V488.618H510.595V495.894C510.595 504.525 503.71 511.535 495.129 511.738Z" fill="#C65D2F"/>
<path d="M464.431 511.742H451.281C451.407 511.742 451.535 511.741 451.661 511.739H464.813C464.686 511.741 464.558 511.742 464.431 511.742Z" fill="#CCC3A5"/>
<path d="M464.813 511.738H451.661C460.226 511.535 467.111 504.525 467.111 495.894V488.618H480.279V495.894C480.279 504.525 473.393 511.535 464.813 511.738Z" fill="#C65D2F"/>
<path d="M323.466 511.738H428.433C435.358 511.738 440.974 506.122 440.974 499.197V478.042C440.974 471.115 435.358 465.501 428.433 465.501H323.466V511.738Z" fill="#E5543C"/>
<path d="M425.131 503.317C429.223 503.317 432.553 499.987 432.553 495.896V481.342C432.553 477.25 429.223 473.921 425.131 473.921H323.466V503.317H425.131Z" fill="#F8EFE0"/>
<path d="M323.466 484.655H415.703V480.217H323.466V484.655Z" fill="#EEDDC9"/>
<path d="M323.466 497.021H415.703V492.582H323.466V497.021Z" fill="#EEDDC9"/>
<path d="M306.97 501.032C306.97 501.032 306.97 516.514 310.362 521.772C313.755 527.03 342.166 541.151 346.05 544.13C349.934 547.108 350.914 554.315 350.914 554.315C350.914 554.315 337.378 558.347 320.95 557.919C311.058 557.662 310.506 552.606 305.069 550.399C299.631 548.193 297.607 549.131 297.607 549.131L297.485 555.051L280.029 553.984C280.029 553.984 278.294 547.322 281.093 538.449C282.686 533.392 283.994 528.17 282.727 521.478C281.459 514.784 279.947 500.554 279.947 500.554L306.97 501.032Z" fill="black"/>
<path d="M135.726 497.497C135.726 497.497 135.726 512.977 132.333 518.235C128.941 523.494 100.529 537.616 96.6454 540.594C92.762 543.572 91.7808 550.78 91.7808 550.78C91.7808 550.78 105.318 554.811 121.745 554.384C131.638 554.126 132.19 549.07 137.627 546.864C143.063 544.657 145.087 545.594 145.087 545.594L145.21 551.516L162.666 550.449C162.666 550.449 164.402 543.786 161.603 534.911C160.009 529.856 158.701 524.634 159.969 517.942C161.235 511.249 162.749 497.018 162.749 497.018L135.726 497.497Z" fill="black"/>
<path d="M389.561 161.672C389.561 161.672 394.13 156.489 397.215 153.912C400.299 151.333 408.826 147.229 411.881 148.48C414.935 149.73 415.703 151.558 414.571 153.914C413.438 156.272 414.989 156.846 415.463 159.265C415.938 161.684 415.463 164.357 415.463 164.357C415.463 164.357 416.598 164.686 416.666 167.64C416.735 170.593 395.649 175.704 395.649 175.704L389.561 161.672Z" fill="#FDC099"/>
<path d="M375.769 162.943L389.749 158.199C389.749 158.199 400.746 166.474 401.522 178.13C388.441 187.875 380.674 190.155 380.674 190.155L375.769 162.943Z" fill="#F8EFE0"/>
<path d="M30.4808 69.9597L86.3432 90.7104C89.5875 91.9157 91.2407 95.5238 90.0355 98.7678L80.074 125.586C78.8688 128.83 75.2615 130.484 72.0167 129.278L16.1538 108.528C12.9094 107.322 11.2563 103.716 12.4615 100.47L22.4235 73.6531C23.6282 70.4077 27.236 68.7544 30.4808 69.9597Z" fill="#9C3A24"/>
<path d="M80.5292 86.8221C79.4584 86.4248 78.276 86.9701 77.8781 88.0408L63.9532 125.527C63.5563 126.599 64.0964 127.779 65.1672 128.177L67.3417 128.985C68.4125 129.382 69.5927 128.842 69.9907 127.77L83.9161 90.2834C84.3131 89.2128 83.7745 88.0274 82.7032 87.6301L80.5292 86.8221ZM35.2527 70.0048C34.1817 69.6061 32.9959 70.1501 32.598 71.2208L18.6724 108.707C18.276 109.779 18.8199 110.961 19.8912 111.358L22.0651 112.166C23.1365 112.565 24.3167 112.023 24.7141 110.953L38.6391 73.4648C39.0365 72.3941 38.4975 71.2101 37.4265 70.8114L35.2527 70.0048Z" fill="#F48134"/>
<path d="M43.3667 120.226L43.7656 120.374C45.2537 120.927 46.0115 122.581 45.4589 124.069L23.5849 182.955C23.0323 184.443 21.3781 185.202 19.8901 184.649L19.4912 184.501C18.0032 183.949 17.2459 182.294 17.798 180.806L39.6719 121.919C40.2245 120.431 41.8792 119.673 43.3667 120.226Z" fill="#9C3A24"/>
<path d="M39.1391 115.59L49.9943 119.623C51.4828 120.175 52.2407 121.83 51.688 123.317C51.1355 124.805 49.4813 125.563 47.9932 125.01L37.138 120.978C35.65 120.426 34.8917 118.771 35.4443 117.283C35.9975 115.795 37.6511 115.038 39.1391 115.59Z" fill="#F48134"/>
<path d="M41.3084 164.895C41.3084 164.895 36.9484 159.537 33.9683 156.838C30.9875 154.139 22.6308 149.701 19.5292 150.829C16.4276 151.958 15.588 153.754 16.6256 156.153C17.6636 158.553 16.0923 159.066 15.5219 161.463C14.9516 163.862 15.3214 166.553 15.3214 166.553C15.3214 166.553 14.1751 166.835 13.9891 169.785C13.8032 172.734 34.6708 178.675 34.6708 178.675L41.3084 164.895Z" fill="#FDC099"/>
<path d="M54.7823 167.025L40.8016 162.282C40.8016 162.282 29.8052 170.555 29.0281 182.213C42.1093 191.957 49.8771 194.237 49.8771 194.237L54.7823 167.025Z" fill="#F8EFE0"/>
<path d="M145.753 353.68L128.093 507.977C128.093 507.977 147.715 518.568 169.463 513.125C175.105 441.198 197.179 361.916 197.179 361.916L145.753 353.68Z" fill="#0D3141"/>
<path d="M145.375 356.962L139.195 410.962C148.225 413.281 162.733 418.27 165.301 427.115C168.358 437.651 163.201 493.289 161.097 514.483C163.825 514.259 166.623 513.834 169.463 513.123C175.015 442.343 196.375 364.835 197.058 362.369C178.238 360.482 161.989 358.75 145.375 356.962Z" fill="#122026"/>
<path d="M296.369 353.833L314.029 508.13C314.029 508.13 294.406 518.721 272.659 513.278C267.017 441.351 244.942 362.07 244.942 362.07L296.369 353.833Z" fill="#0D3141"/>
<path d="M296.369 353.833L255.147 360.434L245.654 364.705C249.07 377.377 267.541 448.026 272.658 513.278C276.497 514.239 280.262 514.681 283.871 514.789C281.047 495.338 272.574 435.145 274.819 425.929C276.619 418.538 292.614 413.284 302.867 410.618L296.369 353.833Z" fill="#122026"/>
<path d="M222.478 73.1982L198.793 74.4276C174.133 78.7356 156.174 76.1422 144.023 94.1049C136.175 105.688 115.447 174.638 110.051 181.037C104.655 187.434 53.9641 163.056 53.9641 163.056C53.9641 163.056 33.238 200.232 37.1213 213.14C83.8062 232.922 106.249 241.342 125.299 238.769C133.865 237.61 140.845 233.525 145.95 229.377C141.13 300.79 132.049 402.21 132.049 402.21C132.049 402.21 261.471 438.909 313.102 396.253C295.931 329.497 287.039 263.512 282.578 222.46C287.789 227.234 295.578 232.562 305.583 233.914C324.633 236.489 347.075 228.069 393.761 208.285C397.643 195.378 376.918 158.201 376.918 158.201C376.918 158.201 326.227 182.581 320.831 176.182C315.435 169.784 294.71 100.834 286.861 89.2502C270.131 69.9742 253.086 75.2342 222.478 73.1982Z" fill="#215681"/>
<path d="M181.317 21.9581C181.317 21.9581 177.285 18.4994 177.574 12.3954C177.863 6.29141 181.107 1.23408 185.906 0.264749C190.705 -0.703251 194.483 3.36612 199.087 1.97412C203.69 0.584791 204.789 -2.07523 215.007 2.85277C225.225 7.77944 227.01 12.8315 227.105 19.7021C227.198 26.5728 224.115 42.3834 223.241 46.0888C222.366 49.7941 219.093 52.7515 219.093 52.7515L181.317 21.9581Z" fill="black"/>
<path d="M181.279 15.7248C181.279 15.7248 179.254 45.0888 183.071 53.3821C186.889 61.6781 193.519 63.8528 199.106 62.5941C201.325 65.4941 202.326 74.3861 202.326 74.3861C202.326 74.3861 217.633 75.9021 224.446 63.4621C219.637 57.0661 220.409 43.5741 220.409 43.5741C220.409 43.5741 226.166 43.1901 226.102 34.1275C226.038 25.0648 220.786 26.8621 219.15 27.7941C216.909 29.0728 215.653 34.7034 215.653 34.7034C215.653 34.7034 211.989 35.0488 208.423 28.6275C206.599 25.3435 209.043 19.5208 205.674 16.8341C202.305 14.1474 192.815 24.3621 181.279 15.7248Z" fill="#FDC099"/>
<path d="M223.602 32.8447C222.879 30.098 220.43 30.3274 219.327 34.0394C218.225 37.7514 218.901 39.8047 220.521 39.6154C222.142 39.4247 222.865 38.3594 222.423 36.4274C221.982 34.4954 220.369 35.0807 220.369 35.0807C220.369 35.0807 220.909 31.2087 223.602 32.8447Z" fill="#F9796E"/>
<path d="M186.887 30.6104C187.702 30.6104 188.362 31.4771 188.362 32.5464C188.362 33.6158 187.702 34.4824 186.887 34.4824C186.071 34.4824 185.411 33.6158 185.411 32.5464C185.411 31.4771 186.071 30.6104 186.887 30.6104Z" fill="#2C1100"/>
<path d="M200.234 30.9556C201.049 30.9556 201.71 31.8223 201.71 32.8916C201.71 33.9596 201.049 34.8276 200.234 34.8276C199.419 34.8276 198.758 33.9596 198.758 32.8916C198.758 31.8223 199.419 30.9556 200.234 30.9556Z" fill="#2C1100"/>
<path d="M189.926 42.9728C189.926 42.9728 189.853 41.8048 191.169 41.6075C192.485 41.4088 193.525 42.6754 193.525 42.6754C193.525 42.6728 191.362 43.9034 189.926 42.9728Z" fill="#F9796E"/>
<path d="M215.003 49.202C207.049 58.8313 200.329 61.9699 196.109 62.9179C197.126 62.9219 198.134 62.8139 199.107 62.5953C199.723 63.3993 200.235 64.6766 200.667 66.0859C204.934 63.7339 214.09 57.742 215.003 49.202Z" fill="#F9796E"/>
<path d="M197.235 25.1329C198.299 24.1542 201.446 23.7862 202.875 24.9009C203.679 25.5275 203.031 26.1916 202.607 26.0689C202.185 25.9476 199.435 26.4556 198.625 27.1769C197.998 27.7356 197.307 27.5489 196.923 27.0115C196.611 26.5755 196.666 25.6582 197.235 25.1329Z" fill="#2C1100"/>
<path d="M189.145 25.4314C188.081 24.4527 184.934 24.0847 183.505 25.1994C182.701 25.8261 183.349 26.4887 183.773 26.3674C184.195 26.246 186.945 26.7527 187.755 27.4741C188.382 28.0341 189.074 27.8461 189.458 27.3101C189.769 26.8741 189.714 25.9554 189.145 25.4314Z" fill="#2C1100"/>
<path d="M181.145 44.1034C181.145 44.1034 184.498 46.9888 186.319 45.8448C188.141 44.7008 190.662 44.4155 193.639 44.6688C196.617 44.9221 197.846 45.3315 199.883 46.2221C201.922 47.1128 206.59 46.9181 208.707 44.1034C210.825 41.2888 212.061 32.0182 212.061 32.0182L215.854 33.2208C215.854 33.2208 216.41 44.0901 216.209 47.4701C216.006 50.8501 210.167 56.8835 206.893 59.4568C203.619 62.0315 200.845 64.1835 195.706 63.9101C190.569 63.6368 186.687 63.5728 184.737 60.8941C182.786 58.2155 179.959 51.2928 181.145 44.1034Z" fill="black"/>
<path d="M188.373 48.6673C188.373 48.6673 189.775 47.802 191.257 47.854C192.738 47.906 195.671 47.8673 197.226 48.7247C194.53 49.7393 189.681 49.298 188.373 48.6673Z" fill="#FDC099"/>
<path d="M200.909 67.4636L197.025 73.9169L189.646 76.5276C189.646 76.5276 196.269 95.2276 207.326 104.476C226.377 89.5463 240.358 74.0089 240.358 74.0089L228.155 69.2289L222.227 59.5209C222.227 59.5209 211.926 67.5369 205.017 69.2476C201.829 68.8983 200.909 67.4636 200.909 67.4636Z" fill="#F8EFE0"/>
<path d="M209.453 75.0037L205.057 75.2237L199.682 82.0437L203.587 86.1437L199.938 96.2571C202.105 99.2917 204.578 102.177 207.327 104.477C210.381 102.084 213.285 99.6797 216.041 97.3224C213.553 92.8891 209.574 86.5664 209.574 86.5664L213.826 82.0824L209.453 75.0037Z" fill="#9E1512"/>
<path d="M29.8437 155.02C29.8437 155.02 28.2704 152.95 25.3062 154.036C22.3426 155.121 19.3584 163.284 19.8698 165.536C20.3808 167.789 22.1589 168.405 24.0188 166.382C25.8786 164.36 27.1765 161.27 27.1765 161.27C27.1765 161.27 25.8484 166.566 27.688 168.598C29.527 170.629 31.4589 169.876 33.2677 167.173C35.0765 164.47 32.6136 157.63 29.8437 155.02Z" fill="#F1997E"/>
<path d="M234.931 416.889C217.655 416.889 200.302 415.213 184.902 412.991C165.457 410.189 149.115 406.519 139.962 404.265C134.917 403.023 132.049 402.21 132.049 402.21C132.049 402.21 141.13 300.79 145.95 229.377C140.845 233.525 133.865 237.61 125.299 238.769C123.125 239.062 120.901 239.209 118.597 239.209C110.231 239.209 100.829 237.278 89.0251 233.481C94.8626 234.313 101.487 234.975 107.859 234.975C116.989 234.975 125.602 233.615 130.643 229.439C145.213 217.374 152.325 179.619 153.77 159.598C154.522 229.699 145.675 354.719 149.49 374.481C152.795 391.597 173.057 397.789 189.73 397.787C192.306 397.787 194.801 397.639 197.13 397.361C214.531 395.281 211.583 243.118 211.583 243.118C211.583 243.118 219.501 333.866 222.045 360.909C224.559 387.637 223.177 396.431 236.877 396.431C237.038 396.431 237.201 396.43 237.366 396.427C251.589 396.219 254.074 385.298 252.455 372.089C250.835 358.881 248.582 300.531 248.582 300.531C248.582 300.531 261.243 387.637 271.187 392.318C276.099 394.63 280.405 396.459 283.943 396.459C287.567 396.459 290.389 394.539 292.231 389.25C295.873 378.797 266.215 160.589 267.371 149.095C287.027 214.725 294.254 224.863 315.934 224.967C316.059 224.969 316.185 224.969 316.311 224.969C330.333 224.969 353.381 221.317 368.701 218.631C342.919 229.013 326.058 234.347 312.198 234.347C309.922 234.347 307.725 234.203 305.583 233.914C295.578 232.562 287.789 227.234 282.578 222.459C287.039 263.511 295.931 329.497 313.102 396.253C309.734 399.035 306.041 401.478 302.066 403.618C289.451 410.411 274.079 414.127 257.79 415.791C257.785 415.793 257.777 415.793 257.773 415.794C250.29 416.558 242.622 416.889 234.931 416.889Z" fill="#1B4B6D"/>
<path d="M203.698 175.549L201.703 118.865L192.251 112.39C192.251 112.39 188.27 149.749 187.807 149.753C187.79 149.753 187.778 149.702 187.77 149.598C187.569 146.661 190.749 110.18 189.766 107.424C188.782 104.668 184.331 95.6968 184.331 95.6968L181.498 126.977C181.498 126.977 183.493 95.6182 182.683 92.4982C181.881 89.4048 182.329 82.4302 182.337 82.3075C182.415 82.5449 190.987 108.26 205.171 114.704C226.446 103.576 243.502 78.8475 243.502 78.8475C243.502 78.8475 239.57 85.4515 239.31 87.8955C239.073 90.1235 237.754 125.425 237.611 129.688C237.645 125.4 236.419 92.2382 236.419 92.2382C236.419 92.2382 226.851 103.393 224.423 106.565C221.995 109.738 224.829 150.561 224.829 150.561L219.886 111.74C219.886 111.74 210.982 117.199 206.878 118.682C206.357 155.969 203.698 175.549 203.698 175.549ZM237.598 130.106C237.598 130.106 237.602 129.961 237.611 129.688C237.61 129.816 237.607 129.918 237.605 129.993C237.601 130.069 237.599 130.106 237.598 130.106ZM182.337 82.3075C182.335 82.3062 182.335 82.3049 182.335 82.3049H182.337C182.337 82.3049 182.337 82.3062 182.337 82.3075Z" fill="#1B4B6D"/>
<path d="M261.005 524.202C261.005 541.749 246.779 555.974 229.233 555.974C211.685 555.974 197.461 541.749 197.461 524.202C197.461 506.654 211.685 492.43 229.233 492.43C246.779 492.43 261.005 506.654 261.005 524.202Z" fill="#CC6017"/>
<mask id="mask4_32_3" style="mask-type:luminance" maskUnits="userSpaceOnUse" x="197" y="492" width="65" height="64">
<path d="M261.005 524.202C261.005 541.749 246.779 555.974 229.233 555.974C211.685 555.974 197.459 541.749 197.459 524.202C197.459 506.654 211.685 492.43 229.233 492.43C246.779 492.43 261.005 506.654 261.005 524.202Z" fill="white"/>
</mask>
<g mask="url(#mask4_32_3)">
<path d="M265.259 495.33H221.194V493.801H265.259V495.33Z" fill="#E5772E"/>
<path d="M265.259 503.374H221.194V501.846H265.259V503.374Z" fill="#E5772E"/>
<path d="M265.259 511.418H221.194V509.89H265.259V511.418Z" fill="#E5772E"/>
<path d="M265.259 519.462H221.194V517.934H265.259V519.462Z" fill="#E5772E"/>
<path d="M265.259 527.506H221.194V525.978H265.259V527.506Z" fill="#E5772E"/>
<path d="M265.259 535.551H221.194V534.022H265.259V535.551Z" fill="#E5772E"/>
<path d="M265.259 543.594H221.194V542.066H265.259V543.594Z" fill="#E5772E"/>
<path d="M265.259 551.639H221.194V550.11H265.259V551.639Z" fill="#E5772E"/>
</g>
<path d="M252.966 524.202C252.966 541.749 238.742 555.974 221.194 555.974C203.647 555.974 189.422 541.749 189.422 524.202C189.422 506.654 203.647 492.43 221.194 492.43C238.742 492.43 252.966 506.654 252.966 524.202Z" fill="#EA9B1C"/>
<path d="M245.754 524.202H245.087C245.087 530.802 242.414 536.772 238.09 541.097C233.763 545.422 227.794 548.096 221.194 548.096C214.594 548.096 208.625 545.422 204.299 541.097C199.974 536.772 197.301 530.802 197.301 524.202C197.301 517.602 199.974 511.633 204.299 507.306C208.625 502.982 214.594 500.309 221.194 500.309C227.794 500.309 233.763 502.982 238.09 507.306C242.414 511.633 245.087 517.602 245.087 524.202H245.754H246.421C246.421 510.269 235.127 498.976 221.194 498.976C207.262 498.976 195.967 510.269 195.967 524.202C195.967 538.134 207.262 549.429 221.194 549.429C235.127 549.429 246.421 538.134 246.421 524.202H245.754Z" fill="#F4AD47"/>
<path d="M241.819 524.202C241.819 535.593 232.585 544.828 221.194 544.828C209.803 544.828 200.569 535.593 200.569 524.202C200.569 512.811 209.803 503.577 221.194 503.577C232.585 503.577 241.819 512.811 241.819 524.202Z" fill="#CC6017"/>
<path d="M424.982 91.085H355.794V84.4796C355.794 80.701 358.857 77.6383 362.635 77.6383H418.141C421.919 77.6383 424.982 80.701 424.982 84.4796V91.085Z" fill="#EA9B1C"/>
<path d="M424.979 91.0859H355.793V85.6873C355.793 85.6406 355.793 85.5953 355.794 85.5499V91.0846H424.979V91.0859Z" fill="#E3B28C"/>
<path d="M424.979 91.085H355.794V85.5503C355.799 85.141 355.834 84.7343 355.919 84.3543H424.854C424.949 84.777 424.979 85.233 424.979 85.6876V91.085Z" fill="#D77312"/>
<path d="M517.865 465.501H396.674C390.829 465.501 386.09 460.762 386.09 454.918C386.09 449.073 390.829 444.334 396.674 444.334H517.865C523.71 444.334 528.449 449.073 528.449 454.918C528.449 460.762 523.71 465.501 517.865 465.501Z" fill="#F8EFE0"/>
<path d="M524.567 463.107C525.07 462.697 525.533 462.241 525.951 461.745C525.759 461.974 525.558 462.194 525.349 462.405C525.101 462.651 524.839 462.886 524.567 463.107Z" fill="#AA4607"/>
<path d="M517.869 465.498H474.43C477.363 465.498 480.003 464.311 481.923 462.405C483.302 461.017 484.305 459.251 484.754 457.271H517.869C520.789 457.271 523.429 456.085 525.349 454.178C526.309 453.218 527.082 452.071 527.615 450.805C528.149 452.071 528.442 453.458 528.442 454.911C528.442 457.522 527.502 459.901 525.951 461.745C525.533 462.241 525.07 462.697 524.567 463.107C522.741 464.598 520.41 465.498 517.869 465.498ZM447.47 465.498H396.669C390.829 465.498 386.095 460.765 386.095 454.911C386.095 453.458 386.389 452.071 386.922 450.805C388.522 454.605 392.282 457.271 396.669 457.271H457.794C457.343 459.251 456.339 461.017 454.95 462.405C453.043 464.311 450.39 465.498 447.47 465.498Z" fill="#F1E0C5"/>
<path d="M485.017 454.911C485.017 457.845 483.83 460.485 481.923 462.405C480.003 464.311 477.363 465.498 474.43 465.498H447.47C450.39 465.498 453.043 464.311 454.95 462.405C456.87 460.485 458.057 457.845 458.057 454.911C458.057 449.071 453.31 444.338 447.47 444.338H474.43C480.283 444.338 485.017 449.071 485.017 454.911Z" fill="#215681"/>
<path d="M480.279 453.827C480.279 458.354 476.61 462.022 472.083 462.022C467.558 462.022 463.889 458.354 463.889 453.827C463.889 449.302 467.558 445.633 472.083 445.633C476.61 445.633 480.279 449.302 480.279 453.827Z" fill="#EA9B1C"/>
<path d="M479.313 453.828C479.313 456.584 477.078 458.818 474.322 458.818C471.566 458.818 469.331 456.584 469.331 453.828C469.331 451.072 471.566 448.837 474.322 448.837C477.078 448.837 479.313 451.072 479.313 453.828Z" fill="#CC6017"/>
<path d="M395.801 465.496C389.958 465.496 385.222 460.76 385.222 454.917C385.222 449.074 389.958 444.338 395.801 444.338C401.643 444.338 406.379 449.074 406.379 454.917C406.379 460.76 401.643 465.496 395.801 465.496Z" fill="white"/>
<path d="M404.019 454.913C404.019 457.193 403.098 459.245 401.615 460.738C400.123 462.221 398.07 463.142 395.801 463.142C391.261 463.142 387.571 459.463 387.571 454.913C387.571 452.643 388.493 450.59 389.986 449.098C391.469 447.617 393.53 446.694 395.801 446.694C398.07 446.694 400.123 447.617 401.615 449.098C403.098 450.59 404.019 452.643 404.019 454.913Z" fill="#D8BC93"/>
<path d="M540.343 444.339H419.151C413.307 444.339 408.569 439.602 408.569 433.757C408.569 427.911 413.307 423.174 419.151 423.174H540.343C546.187 423.174 550.926 427.911 550.926 433.757C550.926 439.602 546.187 444.339 540.343 444.339Z" fill="#F8EFE0"/>
<path d="M547.047 441.946C547.542 441.541 547.999 441.092 548.414 440.604C548.226 440.825 548.031 441.038 547.826 441.244C547.578 441.49 547.318 441.725 547.047 441.946Z" fill="#DDC0A4"/>
<path d="M540.346 444.337H496.907C499.841 444.337 502.481 443.15 504.402 441.244C505.781 439.856 506.782 438.09 507.231 436.11H540.346C543.266 436.11 545.906 434.924 547.826 433.017C548.786 432.057 549.561 430.91 550.093 429.644C550.626 430.91 550.919 432.297 550.919 433.75C550.919 436.37 549.974 438.756 548.414 440.604C547.999 441.092 547.542 441.541 547.047 441.946C545.219 443.438 542.889 444.337 540.346 444.337ZM469.949 444.337H419.146C418.989 444.337 418.833 444.334 418.677 444.328C423.533 444.148 427.551 440.694 428.594 436.11H480.271C479.822 438.09 478.817 439.856 477.429 441.244C475.522 443.15 472.867 444.337 469.949 444.337Z" fill="#F1E0C5"/>
<path d="M507.495 433.75C507.495 436.684 506.309 439.324 504.402 441.244C502.481 443.15 499.841 444.337 496.907 444.337H469.949C472.867 444.337 475.522 443.15 477.429 441.244C479.349 439.324 480.535 436.684 480.535 433.75C480.535 427.91 475.789 423.177 469.949 423.177H496.907C502.762 423.177 507.495 427.91 507.495 433.75Z" fill="#215681"/>
<path d="M502.757 432.668C502.757 437.193 499.087 440.862 494.562 440.862C490.035 440.862 486.366 437.193 486.366 432.668C486.366 428.141 490.035 424.472 494.562 424.472C499.087 424.472 502.757 428.141 502.757 432.668Z" fill="#EA9B1C"/>
<path d="M501.791 432.668C501.791 435.424 499.557 437.658 496.801 437.658C494.045 437.658 491.81 435.424 491.81 432.668C491.81 429.91 494.045 427.677 496.801 427.677C499.557 427.677 501.791 429.91 501.791 432.668Z" fill="#CC6017"/>
<path d="M418.278 444.334C412.435 444.334 407.699 439.598 407.699 433.755C407.699 427.914 412.435 423.177 418.278 423.177C424.121 423.177 428.857 427.914 428.857 433.755C428.857 439.598 424.121 444.334 418.278 444.334Z" fill="white"/>
<path d="M426.498 433.753C426.498 436.033 425.575 438.085 424.093 439.577C422.601 441.059 420.549 441.982 418.278 441.982C413.738 441.982 410.049 438.302 410.049 433.753C410.049 431.482 410.971 429.43 412.463 427.938C413.946 426.455 416.009 425.533 418.278 425.533C420.549 425.533 422.601 426.455 424.093 427.938C425.575 429.43 426.498 431.482 426.498 433.753Z" fill="#D8BC93"/>
<path d="M486.142 423.18H364.95C359.106 423.18 354.367 418.441 354.367 412.596C354.367 406.752 359.106 402.013 364.95 402.013H486.142C491.986 402.013 496.725 406.752 496.725 412.596C496.725 418.441 491.986 423.18 486.142 423.18Z" fill="#F8EFE0"/>
<path d="M492.845 420.786C493.345 420.377 493.806 419.922 494.223 419.43C494.033 419.655 493.834 419.874 493.626 420.083C493.377 420.33 493.117 420.565 492.845 420.786Z" fill="#9D3200"/>
<path d="M486.146 423.177H364.946C359.105 423.177 354.371 418.443 354.371 412.59C354.371 411.137 354.666 409.75 355.199 408.483C356.798 412.283 360.558 414.95 364.946 414.95H486.146C489.065 414.95 491.705 413.763 493.626 411.857C494.586 410.897 495.359 409.75 495.893 408.483C496.425 409.75 496.718 411.137 496.718 412.59C496.718 415.203 495.777 417.583 494.223 419.43C493.806 419.922 493.345 420.377 492.845 420.786C491.017 422.277 488.687 423.177 486.146 423.177Z" fill="#F1E0C5"/>
<path d="M453.294 412.59C453.294 415.523 452.107 418.163 450.201 420.083C448.281 421.99 445.641 423.177 442.707 423.177H415.747C418.667 423.177 421.321 421.99 423.227 420.083C425.147 418.163 426.334 415.523 426.334 412.59C426.334 406.75 421.587 402.017 415.747 402.017H442.707C448.561 402.017 453.294 406.75 453.294 412.59Z" fill="#215681"/>
<path d="M448.555 411.506C448.555 416.031 444.886 419.701 440.361 419.701C435.834 419.701 432.166 416.031 432.166 411.506C432.166 406.979 435.834 403.311 440.361 403.311C444.886 403.311 448.555 406.979 448.555 411.506Z" fill="#EA9B1C"/>
<path d="M447.59 411.506C447.59 414.262 445.355 416.497 442.599 416.497C439.843 416.497 437.609 414.262 437.609 411.506C437.609 408.75 439.843 406.516 442.599 406.516C445.355 406.516 447.59 408.75 447.59 411.506Z" fill="#CC6017"/>
<path d="M364.077 423.174C358.235 423.174 353.498 418.438 353.498 412.596C353.498 406.753 358.235 402.017 364.077 402.017C369.919 402.017 374.655 406.753 374.655 412.596C374.655 418.438 369.919 423.174 364.077 423.174Z" fill="white"/>
<path d="M372.297 412.591C372.297 414.871 371.374 416.923 369.891 418.417C368.399 419.898 366.347 420.821 364.077 420.821C359.538 420.821 355.847 417.141 355.847 412.591C355.847 410.322 356.77 408.269 358.262 406.777C359.745 405.294 361.807 404.371 364.077 404.371C366.347 404.371 368.399 405.294 369.891 406.777C371.374 408.269 372.297 410.322 372.297 412.591Z" fill="#D8BC93"/>
</g>
</svg>
