<svg width="56" height="56" viewBox="0 0 56 56" fill="none" xmlns="http://www.w3.org/2000/svg">
<rect width="56" height="56" rx="28" fill="#D4D4D4"/>
<path d="M28.1568 28C30.0133 28 31.7938 27.2625 33.1065 25.9497C34.4193 24.637 35.1568 22.8565 35.1568 21C35.1568 19.1435 34.4193 17.363 33.1065 16.0503C31.7938 14.7375 30.0133 14 28.1568 14C26.3003 14 24.5198 14.7375 23.207 16.0503C21.8943 17.363 21.1568 19.1435 21.1568 21C21.1568 22.8565 21.8943 24.637 23.207 25.9497C24.5198 27.2625 26.3003 28 28.1568 28ZM39.2051 42C40.6471 42 41.7554 40.691 41.2398 39.3423C40.2282 36.6918 38.4356 34.4111 36.0991 32.8019C33.7626 31.1928 30.9926 30.3312 28.1556 30.3312C25.3187 30.3312 22.5486 31.1928 20.2121 32.8019C17.8757 34.4111 16.083 36.6918 15.0714 39.3423C14.5581 40.691 15.6641 42 17.1061 42H39.2051Z" fill="#71717A"/>
</svg>
